<svg xmlns="http://www.w3.org/2000/svg" width="20.385" height="18.159" viewBox="0 0 20.385 18.159">
  <g id="hospital" transform="translate(0 -27.95)">
    <path id="Path_58" data-name="Path 58" d="M18.387,29.11h-.273v-.563a.6.6,0,1,0-1.194,0v.563H15.168v-.563a.6.6,0,1,0-1.194,0v.563H12.223v-.563a.6.6,0,1,0-1.194,0v.563H9.356v-.563a.6.6,0,1,0-1.194,0v.563H6.411v-.563a.6.6,0,1,0-1.194,0v.563H3.466v-.563a.6.6,0,1,0-1.194,0v.563H2a2,2,0,0,0-2,2v13a2,2,0,0,0,2,2H18.387a2,2,0,0,0,2-2v-13A2,2,0,0,0,18.387,29.11ZM2,30.3h.273v.563a.6.6,0,0,0,1.194,0V30.3H5.217v.563a.6.6,0,0,0,1.194,0V30.3H8.162v.563a.6.6,0,1,0,1.194,0V30.3h1.672v.563a.6.6,0,1,0,1.194,0V30.3h1.751v.563a.6.6,0,1,0,1.194,0V30.3h1.751v.563a.6.6,0,1,0,1.194,0V30.3h.273a.8.8,0,0,1,.8.8V32.3h-18V31.108a.8.8,0,0,1,.8-.8Zm16.389,14.61H2a.8.8,0,0,1-.8-.8V33.49h18V44.111A.8.8,0,0,1,18.387,44.915Z" fill="#7e7e7e"/>
    <path id="Path_59" data-name="Path 59" d="M155.816,204.99h-1.922v-1.922a.6.6,0,0,0-.6-.6h-2.383a.6.6,0,0,0-.6.6v1.922h-1.922a.6.6,0,0,0-.6.6v2.384a.6.6,0,0,0,.6.6h1.922v1.922a.6.6,0,0,0,.6.6H153.3a.6.6,0,0,0,.6-.6v-1.922h1.922a.6.6,0,0,0,.6-.6v-2.384A.6.6,0,0,0,155.816,204.99Zm-.6,2.384H153.3a.6.6,0,0,0-.6.6v1.922h-1.189v-1.922a.6.6,0,0,0-.6-.6h-1.922v-1.189h1.922a.6.6,0,0,0,.6-.6v-1.922H152.7v1.922a.6.6,0,0,0,.6.6h1.922Z" transform="translate(-141.913 -167.573)" fill="#7e7e7e"/>
  </g>
</svg>
