<svg xmlns="http://www.w3.org/2000/svg" width="14.744" height="18.55" viewBox="0 0 14.744 18.55">
  <g id="record_1_" data-name="record (1)" transform="translate(-81.949 -103.107)">
    <g id="Group_68" data-name="Group 68" transform="translate(81.95 103.108)">
      <path id="Path_68" data-name="Path 68" d="M14.2,2.773H10.809V2.382a.543.543,0,0,0-.543-.543H9.891A1.887,1.887,0,0,0,8.086,0H6.658a1.887,1.887,0,0,0-1.8,1.838H4.479a.543.543,0,0,0-.543.543v.391H.544A.544.544,0,0,0,0,3.317v14.69a.543.543,0,0,0,.543.543H14.2a.544.544,0,0,0,.543-.543V3.317a.544.544,0,0,0-.543-.543Zm-2.8,3.4v9.094H3.341V6.174ZM5.022,2.925h.37a.543.543,0,0,0,.543-.543v-.4a.82.82,0,0,1,.722-.89H8.086a.82.82,0,0,1,.722.89v.4a.543.543,0,0,0,.543.543h.37V5.087h-4.7Zm8.635,14.538H1.087V3.86H3.935V5.087H2.8a.543.543,0,0,0-.543.543V15.811a.543.543,0,0,0,.543.543h9.149a.543.543,0,0,0,.543-.543V5.63a.543.543,0,0,0-.543-.543H10.809V3.86h2.848v13.6Zm0,0" transform="translate(0 0)" fill="#19769f"/>
      <path id="Path_69" data-name="Path 69" d="M122.777,352.021h.313a.543.543,0,1,0,0-1.087h-.313a.543.543,0,1,0,0,1.087Zm0,0" transform="translate(-117.805 -338.219)" fill="#19769f"/>
      <path id="Path_70" data-name="Path 70" d="M187.406,352.021h2.458a.543.543,0,1,0,0-1.087h-2.458a.543.543,0,1,0,0,1.087Zm0,0" transform="translate(-180.093 -338.219)" fill="#19769f"/>
      <path id="Path_71" data-name="Path 71" d="M122.777,281.993h.313a.543.543,0,1,0,0-1.087h-.313a.543.543,0,1,0,0,1.087Zm0,0" transform="translate(-117.805 -270.729)" fill="#19769f"/>
      <path id="Path_72" data-name="Path 72" d="M187.406,281.993h2.458a.543.543,0,1,0,0-1.087h-2.458a.543.543,0,1,0,0,1.087Zm0,0" transform="translate(-180.093 -270.729)" fill="#19769f"/>
      <path id="Path_73" data-name="Path 73" d="M122.777,211.966h.313a.543.543,0,0,0,0-1.087h-.313a.543.543,0,0,0,0,1.087Zm0,0" transform="translate(-117.805 -203.239)" fill="#19769f"/>
      <path id="Path_74" data-name="Path 74" d="M187.406,211.966h2.458a.543.543,0,1,0,0-1.087h-2.458a.543.543,0,0,0,0,1.087Zm0,0" transform="translate(-180.093 -203.239)" fill="#19769f"/>
      <path id="Path_75" data-name="Path 75" d="M188.824,45.782h.013a.543.543,0,0,0,0-1.087h-.013a.543.543,0,0,0,0,1.087Zm0,0" transform="translate(-181.459 -43.076)" fill="#19769f"/>
    </g>
  </g>
</svg>
