<svg id="calendar" xmlns="http://www.w3.org/2000/svg" width="18.067" height="18.067" viewBox="0 0 18.067 18.067">
  <g id="Group_65" data-name="Group 65">
    <g id="Group_64" data-name="Group 64">
      <circle id="Ellipse_27" data-name="Ellipse 27" cx="0.5" cy="0.5" r="0.5" transform="translate(13.067 7)" fill="#19769f"/>
      <path id="Path_63" data-name="Path 63" d="M15.244,1.412h-.917V.706a.706.706,0,1,0-1.412,0v.706H9.7V.706a.706.706,0,0,0-1.412,0v.706H5.117V.706a.706.706,0,1,0-1.412,0v.706H2.823A2.826,2.826,0,0,0,0,4.235v11.01a2.826,2.826,0,0,0,2.823,2.823h5.4a.706.706,0,1,0,0-1.412h-5.4a1.413,1.413,0,0,1-1.412-1.412V4.235A1.413,1.413,0,0,1,2.823,2.823h.882v.706a.706.706,0,1,0,1.412,0V2.823H8.293v.706a.706.706,0,0,0,1.412,0V2.823h3.211v.706a.706.706,0,0,0,1.412,0V2.823h.917a1.413,1.413,0,0,1,1.412,1.412V8.257a.706.706,0,1,0,1.412,0V4.235A2.826,2.826,0,0,0,15.244,1.412Z" fill="#19769f"/>
      <path id="Path_64" data-name="Path 64" d="M274.27,270a4.27,4.27,0,1,0,4.27,4.27A4.275,4.275,0,0,0,274.27,270Zm0,7.128a2.858,2.858,0,1,1,2.858-2.858A2.862,2.862,0,0,1,274.27,277.128Z" transform="translate(-260.472 -260.472)" fill="#19769f"/>
      <path id="Path_65" data-name="Path 65" d="M372.729,331.447h-.318v-.741a.706.706,0,1,0-1.411,0v1.447a.706.706,0,0,0,.706.706h1.023a.706.706,0,1,0,0-1.411Z" transform="translate(-357.908 -318.355)" fill="#19769f"/>
      <circle id="Ellipse_28" data-name="Ellipse 28" cx="0.5" cy="0.5" r="0.5" transform="translate(10.067 7)" fill="#19769f"/>
      <circle id="Ellipse_29" data-name="Ellipse 29" cx="0.5" cy="0.5" r="0.5" transform="translate(7.067 10)" fill="#19769f"/>
      <circle id="Ellipse_30" data-name="Ellipse 30" cx="0.5" cy="0.5" r="0.5" transform="translate(4.067 7)" fill="#19769f"/>
      <circle id="Ellipse_31" data-name="Ellipse 31" cx="0.5" cy="0.5" r="0.5" transform="translate(4.067 10)" fill="#19769f"/>
      <circle id="Ellipse_32" data-name="Ellipse 32" cx="0.5" cy="0.5" r="0.5" transform="translate(4.067 13)" fill="#19769f"/>
      <circle id="Ellipse_33" data-name="Ellipse 33" cx="0.5" cy="0.5" r="0.5" transform="translate(7.067 13)" fill="#19769f"/>
      <circle id="Ellipse_34" data-name="Ellipse 34" cx="0.5" cy="0.5" r="0.5" transform="translate(7.067 7)" fill="#19769f"/>
    </g>
  </g>
</svg>
