<svg xmlns="http://www.w3.org/2000/svg" width="31.62" height="15.81" viewBox="0 0 31.62 15.81">
  <path id="Icon_awesome-language" data-name="Icon awesome-language" d="M7.515,10.677c-.173-.6-.385-1.64-.385-1.64H7.1s-.212,1.042-.385,1.64L6.171,12.53H8.053ZM30.434,3.75H16.6V19.56H30.434a1.183,1.183,0,0,0,1.186-1.186V4.936A1.183,1.183,0,0,0,30.434,3.75ZM29.249,9.679a.6.6,0,0,1-.593.593h-.563a8.853,8.853,0,0,1-2.11,3.454,15.317,15.317,0,0,0,1.29.889.594.594,0,0,1,.2.8l-.39.687a.6.6,0,0,1-.825.212,17.19,17.19,0,0,1-1.749-1.23,17.424,17.424,0,0,1-1.749,1.23.6.6,0,0,1-.825-.212l-.39-.687a.593.593,0,0,1,.208-.8,14.094,14.094,0,0,0,1.29-.889,11.464,11.464,0,0,1-1.038-1.27.591.591,0,0,1,.183-.845l.321-.193.361-.212a.6.6,0,0,1,.791.168,9.421,9.421,0,0,0,.86,1.033A7.557,7.557,0,0,0,26,10.272H20.355a.6.6,0,0,1-.593-.593V8.888a.6.6,0,0,1,.593-.593h3.162V7.5a.6.6,0,0,1,.593-.593H24.9a.6.6,0,0,1,.593.593V8.3h3.162a.6.6,0,0,1,.593.593ZM0,4.936V18.374A1.183,1.183,0,0,0,1.186,19.56H15.02V3.75H1.186A1.183,1.183,0,0,0,0,4.936ZM2.91,15.612,5.751,7.258a.591.591,0,0,1,.563-.4H7.92a.6.6,0,0,1,.563.4l2.841,8.355a.594.594,0,0,1-.563.786H9.629a.593.593,0,0,1-.568-.425L8.6,14.4H5.622l-.45,1.571a.6.6,0,0,1-.568.43H3.473A.6.6,0,0,1,2.91,15.612Z" transform="translate(0 -3.75)" fill="#fff"/>
</svg>
