<svg xmlns="http://www.w3.org/2000/svg" width="17.499" height="17.495" viewBox="0 0 17.499 17.495">
  <path id="Icon_awesome-blogger-b" data-name="Icon awesome-blogger-b" d="M17.445,8.7a1.126,1.126,0,0,0-.488-.723,4.716,4.716,0,0,0-.977-.105c-.785-.035-.871-.051-1.121-.2-.395-.23-.5-.48-.5-1.152a5.041,5.041,0,0,0-1.6-3.566A5.96,5.96,0,0,0,10.2,1.375a13.665,13.665,0,0,0-2.473-.113c-2.711-.031-3.312.023-4.234.391A5.551,5.551,0,0,0,.129,5.582,27.387,27.387,0,0,0,.008,9.641c-.023,3.965,0,4.547.25,5.332a5.492,5.492,0,0,0,4.078,3.684c.578.105,7.707.129,8.438.031a5.232,5.232,0,0,0,3.2-1.637,5.348,5.348,0,0,0,1.375-2.426A44.332,44.332,0,0,0,17.445,8.7ZM4.863,6.215c.3-.309.391-.32,2.3-.32,1.715,0,1.773,0,2.023.133a.86.86,0,0,1,.523.855.923.923,0,0,1-.48.844c-.18.113-.285.121-1.965.129a19.1,19.1,0,0,1-1.984-.047A1,1,0,0,1,4.863,6.215Zm7.492,7.8-.582.094-3.027.035A20.278,20.278,0,0,1,5.2,14.07a1.086,1.086,0,0,1-.582-.758,1.1,1.1,0,0,1,.32-.875c.277-.25.4-.258,3.8-.262,3.5,0,3.48,0,3.813.3A.965.965,0,0,1,12.355,14.02Z" transform="translate(-0.001 -1.254)" fill="#fff"/>
</svg>
