<svg xmlns="http://www.w3.org/2000/svg" width="19.19" height="15.104" viewBox="0 0 19.19 15.104">
  <g id="camera" transform="translate(0 -44.8)">
    <g id="Group_1853" data-name="Group 1853" transform="translate(0 44.8)">
      <g id="Group_1852" data-name="Group 1852">
        <path id="Path_1090" data-name="Path 1090" d="M18.552,47.153a2.063,2.063,0,0,0-1.514-.638H14.01v-.036a1.638,1.638,0,0,0-.493-1.186,1.669,1.669,0,0,0-1.186-.493H6.859a1.682,1.682,0,0,0-1.7,1.678v.036H2.153a2.063,2.063,0,0,0-1.514.638A2.169,2.169,0,0,0,0,48.667v9.084a2.063,2.063,0,0,0,.638,1.514,2.169,2.169,0,0,0,1.514.638H17.038a2.063,2.063,0,0,0,1.514-.638,2.169,2.169,0,0,0,.638-1.514V48.667A2.063,2.063,0,0,0,18.552,47.153Zm-.31,10.6h-.018a1.183,1.183,0,0,1-1.186,1.186H2.153A1.183,1.183,0,0,1,.967,57.752V48.667a1.183,1.183,0,0,1,1.186-1.186H5.673a.49.49,0,0,0,.493-.493V46.46a.687.687,0,0,1,.711-.711h5.454a.687.687,0,0,1,.711.711v.529a.49.49,0,0,0,.493.493h3.521a1.183,1.183,0,0,1,1.186,1.186Z" transform="translate(0 -44.8)" fill="#888d9a"/>
        <path id="Path_1091" data-name="Path 1091" d="M116.487,130.8a4.484,4.484,0,1,0,3.174,1.313A4.5,4.5,0,0,0,116.487,130.8Zm2.481,6.987a3.523,3.523,0,0,1-4.962,0,3.487,3.487,0,0,1-1.022-2.481,3.565,3.565,0,0,1,1.022-2.481,3.487,3.487,0,0,1,2.481-1.022,3.565,3.565,0,0,1,2.481,1.022,3.487,3.487,0,0,1,1.022,2.481A3.413,3.413,0,0,1,118.968,137.787Z" transform="translate(-106.892 -126.878)" fill="#888d9a"/>
      </g>
    </g>
  </g>
</svg>
