<svg xmlns="http://www.w3.org/2000/svg" width="14.726" height="19.648" viewBox="0 0 14.726 19.648">
    <defs>
        <linearGradient id="prefix__linear-gradient" x1=".5" x2=".5" y2="1" gradientUnits="objectBoundingBox">
            <stop offset="0" stop-color="#19769f"/>
            <stop offset="1" stop-color="#35d8a6"/>
        </linearGradient>
        <style>
            .prefix__cls-1{fill:url(#prefix__linear-gradient)}
        </style>
    </defs>
    <g id="prefix__doctor" transform="translate(-64.131)">
        <g id="prefix__Group_1729" data-name="Group 1729" transform="translate(64.131)">
            <g id="prefix__Group_1728" data-name="Group 1728">
                <path id="prefix__Path_994" d="M77.434 14.348l-2.219-.783a.724.724 0 00-.389-.845l-1.2-.565v-.394a20.958 20.958 0 003.116-.8.907.907 0 00.53-.476.88.88 0 00.021-.7 4.929 4.929 0 01-.283-1.806V5.517a5.517 5.517 0 10-11.035 0v2.461a4.93 4.93 0 01-.283 1.806.88.88 0 00.021.7.907.907 0 00.53.476 20.959 20.959 0 003.116.8v.394l-1.2.565a.724.724 0 00-.39.845l-2.219.783a2.137 2.137 0 00-1.423 2.012v3a.288.288 0 00.576 0v-3a1.56 1.56 0 011.039-1.469l2.34-.826.288.383-.311.467a.909.909 0 00-.069.879l.661 1.432h-.871V16.9a.288.288 0 10-.576 0v.327h-1.25a.288.288 0 00-.288.288v1.846a.288.288 0 00.288.288h3.076a.288.288 0 00.288-.288v-.689l.374.81a.288.288 0 00.523-.241l-1.7-3.687a.33.33 0 01.025-.319l.424-.636a.288.288 0 00-.009-.332l-.6-.8a.148.148 0 01.055-.223l1.049-.495.626 2.383a.288.288 0 10.557-.146l-.024-.092a2.753 2.753 0 001.754 0l-.877 3.338-.53-2.018a.288.288 0 00-.557.146l.809 3.077a.288.288 0 00.557 0l1.758-6.688 1.049.495a.148.148 0 01.055.223l-.6.8a.288.288 0 00-.009.332l.424.636a.33.33 0 01.025.319l-1.7 3.686a.288.288 0 10.523.241L75 15.795a.909.909 0 00-.069-.879l-.311-.467.288-.383 2.34.826a1.56 1.56 0 011.039 1.469v3a.288.288 0 10.576 0v-3a2.137 2.137 0 00-1.429-2.013zm-8.689 4.725h-2.5V17.8h.963v.02a.288.288 0 10.576 0v-.02h.963zm8.006-8.83a.325.325 0 01-.192.173 20.979 20.979 0 01-2.484.676 4.283 4.283 0 001.706-3.42V6.261q.325.066.655.119v1.6a5.535 5.535 0 00.323 2.02.31.31 0 01-.008.243zm-3.7 2.058l-.494 1.88a2.175 2.175 0 01-2.128 0l-.494-1.88v-.636a4.287 4.287 0 003.116 0v.635zm-1.558-.918a3.716 3.716 0 01-3.711-3.711V6.44a.288.288 0 10-.576 0v1.23a4.283 4.283 0 001.706 3.42 21 21 0 01-2.484-.676.325.325 0 01-.192-.173.31.31 0 01-.007-.241 5.536 5.536 0 00.323-2.018V5.813c.044-.007.087-.015.1-.019A10.175 10.175 0 0069.9 4.076a.619.619 0 01.76-.008 11.929 11.929 0 002.883 1.549.288.288 0 00.2-.538A11.348 11.348 0 0171 3.606a1.194 1.194 0 00-1.467.022 9.792 9.792 0 01-2.971 1.592 4.942 4.942 0 019.874.3v.28a14.514 14.514 0 01-1.481-.324.288.288 0 00-.153.555q.2.055.4.1v1.54a3.716 3.716 0 01-3.708 3.711z" class="prefix__cls-1" data-name="Path 994" transform="translate(-64.131)"/>
            </g>
        </g>
        <g id="prefix__Group_1731" data-name="Group 1731" transform="translate(69.053 5.845)">
            <g id="prefix__Group_1730" data-name="Group 1730">
                <path id="prefix__Path_995" d="M193.29 152.307h-.615a.288.288 0 100 .576h.615a.288.288 0 100-.576z" class="prefix__cls-1" data-name="Path 995" transform="translate(-192.387 -152.307)"/>
            </g>
        </g>
        <g id="prefix__Group_1733" data-name="Group 1733" transform="translate(72.744 5.845)">
            <g id="prefix__Group_1732" data-name="Group 1732">
                <path id="prefix__Path_996" d="M289.484 152.307h-.615a.288.288 0 100 .576h.615a.288.288 0 100-.576z" class="prefix__cls-1" data-name="Path 996" transform="translate(-288.581 -152.307)"/>
            </g>
        </g>
        <g id="prefix__Group_1735" data-name="Group 1735" transform="translate(75.205 16.612)">
            <g id="prefix__Group_1734" data-name="Group 1734">
                <path id="prefix__Path_997" d="M354.535 433.64h-.481v-.481a.288.288 0 00-.576 0v.481H353a.288.288 0 100 .576h.481v.481a.288.288 0 00.576 0v-.481h.481a.288.288 0 100-.576z" class="prefix__cls-1" data-name="Path 997" transform="translate(-352.709 -432.871)"/>
            </g>
        </g>
        <g id="prefix__Group_1737" data-name="Group 1737" transform="translate(69.361 6.768)">
            <g id="prefix__Group_1736" data-name="Group 1736">
                <path id="prefix__Path_998" d="M200.691 176.354a.288.288 0 00-.288.288v.308a.288.288 0 10.576 0v-.308a.288.288 0 00-.288-.288z" class="prefix__cls-1" data-name="Path 998" transform="translate(-200.403 -176.354)"/>
            </g>
        </g>
        <g id="prefix__Group_1739" data-name="Group 1739" transform="translate(73.052 6.768)">
            <g id="prefix__Group_1738" data-name="Group 1738">
                <path id="prefix__Path_999" d="M296.885 176.354a.288.288 0 00-.288.288v.308a.288.288 0 10.576 0v-.308a.288.288 0 00-.288-.288z" class="prefix__cls-1" data-name="Path 999" transform="translate(-296.597 -176.354)"/>
            </g>
        </g>
        <g id="prefix__Group_1741" data-name="Group 1741" transform="translate(69.822 8.459)">
            <g id="prefix__Group_1740" data-name="Group 1740">
                <path id="prefix__Path_1000" d="M215.483 220.415h-2.769a.288.288 0 00-.288.288 1.68 1.68 0 003.344 0 .288.288 0 00-.287-.288zm-1.384 1.23a1.094 1.094 0 01-1.044-.655h2.088a1.094 1.094 0 01-1.043.655z" class="prefix__cls-1" data-name="Path 1000" transform="translate(-212.427 -220.415)"/>
            </g>
        </g>
    </g>
</svg>
