<svg xmlns="http://www.w3.org/2000/svg" width="28.953" height="37.08" viewBox="0 0 28.953 37.08">
  <g id="doctor" transform="translate(-56.113)">
    <path id="Path_740" data-name="Path 740" d="M88.98,341.114l-6.119-1.881H72.233l-6.119,1.881a3.624,3.624,0,0,0-2.5,3.494v7.137H91.48v-7.137A3.624,3.624,0,0,0,88.98,341.114Z" transform="translate(-6.958 -314.665)" fill="#5fe5bc"/>
    <path id="Path_743" data-name="Path 743" d="M203.952,272.144h0a4.064,4.064,0,0,1-4.064-4.064v-4.064h8.128v4.064A4.064,4.064,0,0,1,203.952,272.144Z" transform="translate(-133.363 -244.895)" fill="#f7d291"/>
    <path id="Path_745" data-name="Path 745" d="M138.015,85.45h-.871V79.645H122.05V85.45h-.871a1.451,1.451,0,0,0,0,2.9h.9a7.54,7.54,0,0,0,15.035,0h.9a1.451,1.451,0,1,0,0-2.9Z" transform="translate(-59.008 -73.877)" fill="#ffe1a0"/>
    <path id="Path_747" data-name="Path 747" d="M139.75,47.529l.073,2.322a6.411,6.411,0,0,0-1.742,4.064v.717a1.161,1.161,0,0,1-1.017,1.152l-1.305.163V51.012A3.716,3.716,0,0,1,139.75,47.529Z" transform="translate(-73.878 -44.083)" fill="#5fe5bc"/>
    <path id="Path_748" data-name="Path 748" d="M262.956,317.326l-1.15-1.15,1.231-1.641a.711.711,0,0,0-.251-1.062l-2.721-1.361L256,326.045h3.483l3.69-7.379A1.161,1.161,0,0,0,262.956,317.326Z" transform="translate(-185.412 -289.508)" fill="#5fe5bc"/>
    <path id="Path_749" data-name="Path 749" d="M320.2,23.48l-.073,4.064a6.411,6.411,0,0,1,1.742,4.064v.717a1.161,1.161,0,0,0,1.017,1.152l1.305.163V26.964A3.716,3.716,0,0,0,320.2,23.48Z" transform="translate(-244.896 -21.776)" fill="#5fe5bc"/>
    <path id="Path_750" data-name="Path 750" d="M155.606,317.326l1.15-1.15-1.231-1.641a.711.711,0,0,1,.251-1.062l2.721-1.361,4.064,13.933h-3.483l-3.69-7.379A1.161,1.161,0,0,1,155.606,317.326Z" transform="translate(-91.972 -289.508)" fill="#5fe5bc"/>
    <path id="Path_751" data-name="Path 751" d="M146.122,7.5c-4.844,0-5.772,1.472-9.5,2.66a.406.406,0,0,0-.227.605c.809,1.266,3.822,4.566,12.38,2.325A2.712,2.712,0,0,0,150.749,11h0a2.714,2.714,0,0,0-1.555-2.875A7.149,7.149,0,0,0,146.122,7.5Z" transform="translate(-74.408 -6.957)" fill="#5fe5bc"/>
    <path id="Path_752" data-name="Path 752" d="M200.948,160.322a.543.543,0,0,0-.543.543v.581a.543.543,0,0,0,1.086,0v-.581A.543.543,0,0,0,200.948,160.322Z" transform="translate(-133.842 -148.711)" fill="#19769f"/>
    <path id="Path_753" data-name="Path 753" d="M297.141,160.322a.543.543,0,0,0-.543.543v.581a.543.543,0,0,0,1.086,0v-.581A.543.543,0,0,0,297.141,160.322Z" transform="translate(-223.069 -148.711)" fill="#19769f"/>
    <path id="Path_754" data-name="Path 754" d="M228.862,217.365a.543.543,0,1,0-.763-.773,2.394,2.394,0,0,1-2.72,0,.543.543,0,1,0-.763.773,3.426,3.426,0,0,0,4.246,0Z" transform="translate(-156.149 -200.76)" fill="#19769f"/>
    <path id="Path_755" data-name="Path 755" d="M194.093,136.274h-1.161a.543.543,0,0,0,0,1.086h1.161a.543.543,0,0,0,0-1.086Z" transform="translate(-126.407 -126.405)" fill="#19769f"/>
    <path id="Path_756" data-name="Path 756" d="M289.125,137.36h1.161a.543.543,0,0,0,0-1.086h-1.161a.543.543,0,0,0,0,1.086Z" transform="translate(-215.633 -126.405)" fill="#19769f"/>
    <path id="Path_757" data-name="Path 757" d="M82.222,25.872l-3.915-1.2a1.245,1.245,0,0,0-.69-1.19L75.2,22.268V20.542A8.1,8.1,0,0,0,78.6,15.019h.323a2.058,2.058,0,0,0,2.067-1.791,1.991,1.991,0,0,0-1.151-2.015V5.188a4.031,4.031,0,0,0-4.026-4.026h-.092A6.848,6.848,0,0,0,71.714,0a13.848,13.848,0,0,0-6.756,1.525,23.557,23.557,0,0,1-3.374,1.3.543.543,0,0,0-.349.731,4.928,4.928,0,0,0,.885,1.287A4.442,4.442,0,0,0,61.338,7.7v3.535a1.981,1.981,0,0,0,.833,3.781h.405a8.1,8.1,0,0,0,3.405,5.523v1.726l-2.421,1.211a1.246,1.246,0,0,0-.69,1.19l-3.915,1.2a4.006,4.006,0,0,0-2.843,3.849v6.816a.543.543,0,0,0,1.086,0V29.721a2.925,2.925,0,0,1,2.076-2.81l4.072-1.252.719.958-.817.817a1.7,1.7,0,0,0-.319,1.967l1.555,3.11H63v-.618a.543.543,0,1,0-1.086,0v.618h-2.36a.543.543,0,0,0-.543.543v3.483a.543.543,0,0,0,.543.543h5.805a.543.543,0,0,0,.543-.543V35.354l.713,1.425a.543.543,0,0,0,.972-.486L63.9,28.915a.617.617,0,0,1,.116-.713l1.15-1.15a.543.543,0,0,0,.05-.71L63.988,24.7a.168.168,0,0,1,.059-.251l2.139-1.07,1.51,5.178a.543.543,0,1,0,1.043-.3l-.238-.816a6.355,6.355,0,0,0,4.176,0L70.589,34.6l-1.172-4.019a.543.543,0,1,0-1.043.3l1.694,5.807a.543.543,0,0,0,1.043,0l3.882-13.308,2.139,1.07a.168.168,0,0,1,.059.251L75.96,26.342a.543.543,0,0,0,.05.71l1.15,1.15a.617.617,0,0,1,.116.713l-3.69,7.379a.543.543,0,1,0,.972.486l3.69-7.379a1.7,1.7,0,0,0-.319-1.967l-.817-.817.719-.958L81.9,26.91a2.925,2.925,0,0,1,2.076,2.81v6.816a.543.543,0,0,0,1.086,0V29.721A4.006,4.006,0,0,0,82.222,25.872Zm-17.4,10.122H60.1V33.6h1.816v.037a.543.543,0,1,0,1.086,0V33.6h1.816v2.4Zm.585-33.479a12.794,12.794,0,0,1,6.308-1.428c2,0,3.795.839,4.165,1.951a.543.543,0,0,0,1.031-.344,2.559,2.559,0,0,0-.111-.276,2.945,2.945,0,0,1,1.955,2.77V11.03h-.618a.619.619,0,0,1-.618-.618V9.832a6.92,6.92,0,0,0-1.9-4.448.544.544,0,0,0-.548-.134C72.055,6.2,67.8,7,64.673,5.421a5.843,5.843,0,0,1-2.117-1.758A26.716,26.716,0,0,0,65.406,2.515Zm8.7,20.012-1.037,3.557a5.27,5.27,0,0,1-4.966,0l-1.038-3.557V21.179a8.078,8.078,0,0,0,7.041,0ZM70.589,20.9a7.012,7.012,0,0,1-7-7,.543.543,0,0,0-1.086,0v.037h-.328a.908.908,0,0,1-.9-1,.964.964,0,0,1,.986-.813h.788a1.706,1.706,0,0,0,1.7-1.7V8.362a.543.543,0,1,0-1.086,0v2.05a.619.619,0,0,1-.618.618h-.618V7.7a3.661,3.661,0,0,1,.5-2.115,7.466,7.466,0,0,0,1.177.758A10.14,10.14,0,0,0,68.452,7.4,20.557,20.557,0,0,0,75.06,6.39a5.724,5.724,0,0,1,1.372,3.441v.581a1.706,1.706,0,0,0,1.7,1.7h.871a.908.908,0,0,1,.9,1,.963.963,0,0,1-.986.813h-.245V13.9a.543.543,0,0,0-.543-.543h0a.543.543,0,0,0-.543.543A7.013,7.013,0,0,1,70.589,20.9Z" transform="translate(0 0)" fill="#19769f"/>
    <path id="Path_758" data-name="Path 758" d="M364.173,434.322h-.908v-.908a.543.543,0,1,0-1.086,0v.908h-.908a.543.543,0,0,0,0,1.086h.908v.908a.543.543,0,1,0,1.086,0v-.908h.908a.543.543,0,1,0,0-1.086Z" transform="translate(-282.553 -401.522)" fill="#19769f"/>
  </g>
</svg>
