<svg xmlns="http://www.w3.org/2000/svg" width="13.957" height="13.887" viewBox="0 0 13.957 13.887">
    <defs>
        <style>
            .prefix__cls-1{fill:#5fe5bc}
        </style>
    </defs>
    <g id="prefix__edit" transform="translate(0 -.261)">
        <path id="prefix__Path_1020" d="M12.882 46.534a.348.348 0 0 0-.348.348v3.086a1.044 1.044 0 0 1-1.043 1.043H1.738A1.044 1.044 0 0 1 .7 49.968V40.91a1.044 1.044 0 0 1 1.043-1.043h3.081a.348.348 0 1 0 0-.7H1.738A1.74 1.74 0 0 0 0 40.91v9.058a1.74 1.74 0 0 0 1.738 1.738h9.753a1.74 1.74 0 0 0 1.738-1.738v-3.086a.348.348 0 0 0-.348-.348zm0 0" class="prefix__cls-1" data-name="Path 1020" transform="translate(0 -37.559)"/>
        <path id="prefix__Path_1021" d="M117.521.719a1.564 1.564 0 0 0-2.212 0l-6.2 6.2a.348.348 0 0 0-.089.153l-.816 2.944a.348.348 0 0 0 .428.428l2.944-.816a.347.347 0 0 0 .153-.089l6.2-6.2a1.566 1.566 0 0 0 0-2.212zm-7.656 6.427l5.075-5.076 1.637 1.637-5.077 5.076zm-.327.656l1.308 1.308-1.809.5zm7.9-4.955l-.369.369-1.637-1.637.369-.369a.869.869 0 0 1 1.229 0l.408.408a.87.87 0 0 1-.001 1.229zm0 0" class="prefix__cls-1" data-name="Path 1021" transform="translate(-104.43)"/>
    </g>
</svg>
