<svg xmlns="http://www.w3.org/2000/svg" width="25" height="17.5" viewBox="0 0 25 17.5">
  <path id="Icon_awesome-users" data-name="Icon awesome-users" d="M3.75,8.75a2.5,2.5,0,1,0-2.5-2.5A2.5,2.5,0,0,0,3.75,8.75Zm17.5,0a2.5,2.5,0,1,0-2.5-2.5A2.5,2.5,0,0,0,21.25,8.75ZM22.5,10H20a2.493,2.493,0,0,0-1.762.727A5.714,5.714,0,0,1,21.172,15H23.75A1.249,1.249,0,0,0,25,13.75V12.5A2.5,2.5,0,0,0,22.5,10Zm-10,0A4.375,4.375,0,1,0,8.125,5.625,4.373,4.373,0,0,0,12.5,10Zm3,1.25h-.324a6.04,6.04,0,0,1-5.352,0H9.5A4.5,4.5,0,0,0,5,15.75v1.125A1.875,1.875,0,0,0,6.875,18.75h11.25A1.875,1.875,0,0,0,20,16.875V15.75A4.5,4.5,0,0,0,15.5,11.25Zm-8.738-.523A2.493,2.493,0,0,0,5,10H2.5A2.5,2.5,0,0,0,0,12.5v1.25A1.249,1.249,0,0,0,1.25,15H3.824A5.728,5.728,0,0,1,6.762,10.727Z" transform="translate(0 -1.25)" fill="#fff"/>
</svg>
