<svg xmlns="http://www.w3.org/2000/svg" width="37.08" height="37.08" viewBox="0 0 37.08 37.08">
  <g id="filled_outline" data-name="filled outline" transform="translate(-15.998 -16)">
    <path id="Path_771" data-name="Path 771" d="M277.6,155.124H276.36V150.8a5.562,5.562,0,1,0-11.124,0v3.708H264V150.8a6.8,6.8,0,1,1,13.6,0Z" transform="translate(-228.844 -118.112)" fill="#428dc5"/>
    <path id="Path_772" data-name="Path 772" d="M232,272h17.3v2.472H232Z" transform="translate(-199.316 -236.224)" fill="#5fe5bc"/>
    <path id="Path_773" data-name="Path 773" d="M254.832,315.742h-13.6L240,304h16.068Z" transform="translate(-206.698 -265.752)" fill="#5fe5bc"/>
    <path id="Path_774" data-name="Path 774" d="M337.888,249.7v4.446a1.259,1.259,0,0,1-1.177,1.269,1.266,1.266,0,0,0-2.531,0,1.236,1.236,0,1,0-2.472,0,.884.884,0,1,0-1.4-.618,1.247,1.247,0,0,1-.453.453,1.22,1.22,0,0,1-.6.165,1.265,1.265,0,0,1-1.255-1.27V249.7a1.7,1.7,0,0,1,1.7-1.7h6.489A1.7,1.7,0,0,1,337.888,249.7Z" transform="translate(-287.9 -214.078)" fill="#ffe1a0"/>
    <g id="Group_1692" data-name="Group 1692" transform="translate(34.538 42.574)">
      <path id="Path_775" data-name="Path 775" d="M256,456h13.6v2.472H256Z" transform="translate(-256 -448.584)" fill="#5fe5bc"/>
      <path id="Path_776" data-name="Path 776" d="M392,392h1.236v3.09H392Z" transform="translate(-381.494 -389.528)" fill="#5fe5bc"/>
      <path id="Path_777" data-name="Path 777" d="M392,360h1.236v1.236H392Z" transform="translate(-381.494 -360)" fill="#5fe5bc"/>
    </g>
    <path id="Path_778" data-name="Path 778" d="M352.618,298.472a1.231,1.231,0,0,1-.165.618,1.247,1.247,0,0,1-.453.453V296h.618Z" transform="translate(-310.046 -258.37)" fill="#e08122"/>
    <path id="Path_779" data-name="Path 779" d="M384.618,298.472a1.235,1.235,0,0,1-.618,1.071V296h.618Z" transform="translate(-339.574 -258.37)" fill="#e08122"/>
    <path id="Path_780" data-name="Path 780" d="M416.618,298.472a1.235,1.235,0,0,1-.618,1.071V296h.618Z" transform="translate(-369.102 -258.37)" fill="#e08122"/>
    <path id="Path_781" data-name="Path 781" d="M75.776,428.944H56L57.236,424h17.3Z" transform="translate(-36.912 -376.482)" fill="#5fe5bc"/>
    <path id="Path_782" data-name="Path 782" d="M72.618,392H88.686a.618.618,0,0,1,.618.618v1.854H72v-1.854A.618.618,0,0,1,72.618,392Z" transform="translate(-51.676 -346.954)" fill="#5fe5bc"/>
    <path id="Path_783" data-name="Path 783" d="M160.618,424h2.472l.618,4.944H160Z" transform="translate(-132.878 -376.482)" fill="#5fe5bc"/>
    <path id="Path_784" data-name="Path 784" d="M88,428.944,89.236,424h2.472l-1.236,4.944Z" transform="translate(-66.44 -376.482)" fill="#5fe5bc"/>
    <path id="Path_785" data-name="Path 785" d="M169.236,24a1.236,1.236,0,0,1,1.236,1.236V52.428H168V25.236A1.236,1.236,0,0,1,169.236,24Z" transform="translate(-140.26 -7.382)" fill="#ffe1a0"/>
    <path id="Path_786" data-name="Path 786" d="M74.472,208A3.909,3.909,0,0,1,72,210.472a3.909,3.909,0,0,1,2.472,2.472,3.909,3.909,0,0,1,2.472-2.472A3.909,3.909,0,0,1,74.472,208Z" transform="translate(-51.676 -177.168)" fill="#5fe5bc"/>
    <path id="Path_787" data-name="Path 787" d="M426.472,112A3.909,3.909,0,0,1,424,114.472a3.909,3.909,0,0,1,2.472,2.472,3.909,3.909,0,0,1,2.472-2.472A3.909,3.909,0,0,1,426.472,112Z" transform="translate(-376.484 -88.584)" fill="#5fe5bc"/>
    <path id="Path_788" data-name="Path 788" d="M26.472,304A3.909,3.909,0,0,1,24,306.472a3.909,3.909,0,0,1,2.472,2.472,3.909,3.909,0,0,1,2.472-2.472A3.909,3.909,0,0,1,26.472,304Z" transform="translate(-7.384 -265.752)" fill="#5fe5bc"/>
    <path id="Path_789" data-name="Path 789" d="M232,424h2.472l1.236,4.944h-2.472Z" transform="translate(-199.316 -376.482)" fill="#5fe5bc"/>
    <path id="Path_790" data-name="Path 790" d="M78.282,33.35v-.664a6.8,6.8,0,1,0-13.6,0v2.472H62.214a.618.618,0,0,0-.618.618v2.472a.618.618,0,0,0,.618.618h.062l.585,5.562h-2.5V17.854a1.854,1.854,0,1,0-3.708,0V44.428h-6.18a1.237,1.237,0,0,0-1.236,1.236v1.778l-1.218,4.87a.618.618,0,0,0,.6.768H77.664a.618.618,0,0,0,.618-.618v-2.44l.872-8.287a1.891,1.891,0,0,0,.982-1.669V35.622a2.321,2.321,0,0,0-1.854-2.271Zm-12.36-.664a5.562,5.562,0,1,1,11.124,0V33.3H71.33a2.321,2.321,0,0,0-2.271,1.854H65.922Zm-3.09,3.708h6.18V37.63h-6.18Zm.686,2.472h5.494v1.2a1.915,1.915,0,0,0,.57,1.355,1.823,1.823,0,0,0,1.313.533,1.862,1.862,0,0,0,1.208-.473,1.851,1.851,0,0,0,2.472,0,1.851,1.851,0,0,0,2.471,0,1.835,1.835,0,0,0,.847.431l-.785,7.458H68.259l-.483-1.93V45.664a1.237,1.237,0,0,0-1.236-1.236H64.1Zm-5.63-21.012a.618.618,0,1,1,1.236,0V44.428H57.888Zm-7.416,27.81H66.54V46.9H50.472Zm1.41,6.18.927-3.708h1.2l-.927,3.708Zm-1.545-3.708h1.2l-.927,3.708h-1.2Zm4.944,0H56.57l-.464,3.708H54.354Zm2.072,3.708.464-3.708H59.2l.463,3.708Zm3.554,0-.464-3.708h1.289l.927,3.708Zm3.027,0-.927-3.708h1.2l.927,3.708Zm2.472,0-.927-3.708h1.2l.927,3.708Zm10.642,0h-8.17l-.309-1.236h8.479Zm1.854-13.6v1.819a.643.643,0,0,1-.587.652.618.618,0,0,1-.649-.617V37.63H76.428V40.1a.618.618,0,0,1-1.236,0V37.63H73.956V40.1a.618.618,0,1,1-1.236,0V37.63H71.484V40.1a.617.617,0,0,1-.608.618h-.008a.6.6,0,0,1-.418-.178.671.671,0,0,1-.2-.474V35.622A1.083,1.083,0,0,1,71.33,34.54h6.489A1.083,1.083,0,0,1,78.9,35.622Z" transform="translate(-29.53)" fill="#19769f"/>
    <path id="Path_791" data-name="Path 791" d="M392,392h1.236v3.09H392Z" transform="translate(-346.956 -346.954)" fill="#19769f"/>
    <path id="Path_792" data-name="Path 792" d="M392,360h1.236v1.236H392Z" transform="translate(-346.956 -317.426)" fill="#19769f"/>
    <path id="Path_793" data-name="Path 793" d="M66.5,205.759a.618.618,0,0,0,1.173,0,3.306,3.306,0,0,1,2.081-2.081.618.618,0,0,0,0-1.173,3.306,3.306,0,0,1-2.081-2.081.618.618,0,0,0-1.173,0,3.306,3.306,0,0,1-2.081,2.081.618.618,0,0,0,0,1.173A3.306,3.306,0,0,1,66.5,205.759Zm.586-3.782a4.573,4.573,0,0,0,1.115,1.115,4.574,4.574,0,0,0-1.115,1.115,4.574,4.574,0,0,0-1.115-1.115A4.574,4.574,0,0,0,67.088,201.976Z" transform="translate(-44.292 -169.787)" fill="#19769f"/>
    <path id="Path_794" data-name="Path 794" d="M421.756,106.5a3.306,3.306,0,0,1-2.081-2.081.618.618,0,0,0-1.173,0,3.306,3.306,0,0,1-2.081,2.081.618.618,0,0,0,0,1.173,3.306,3.306,0,0,1,2.081,2.081.618.618,0,0,0,1.173,0,3.306,3.306,0,0,1,2.081-2.081.618.618,0,0,0,0-1.173Zm-2.667,1.7a4.574,4.574,0,0,0-1.115-1.115,4.574,4.574,0,0,0,1.115-1.115,4.574,4.574,0,0,0,1.115,1.115A4.574,4.574,0,0,0,419.088,108.206Z" transform="translate(-369.1 -81.203)" fill="#19769f"/>
    <path id="Path_795" data-name="Path 795" d="M19.088,302.181a.618.618,0,0,0,.586-.422,3.306,3.306,0,0,1,2.081-2.081.618.618,0,0,0,0-1.173,3.306,3.306,0,0,1-2.081-2.081.618.618,0,0,0-1.173,0,3.306,3.306,0,0,1-2.081,2.081.618.618,0,0,0,0,1.173,3.306,3.306,0,0,1,2.081,2.081A.618.618,0,0,0,19.088,302.181Zm0-4.2a4.574,4.574,0,0,0,1.115,1.115,4.574,4.574,0,0,0-1.115,1.115,4.574,4.574,0,0,0-1.115-1.115A4.574,4.574,0,0,0,19.088,297.976Z" transform="translate(0 -258.371)" fill="#19769f"/>
  </g>
</svg>
