<svg xmlns="http://www.w3.org/2000/svg" width="25.541" height="32.939" viewBox="0 0 25.541 32.939">
    <defs>
        <style>
            .prefix__cls-1{fill:#7e7e7e}
        </style>
    </defs>
    <g id="prefix__health-check" transform="translate(-57.5)">
        <path id="prefix__Path_1024" d="M82.558 7.984a.482.482 0 00.482-.484V3.994a2.532 2.532 0 00-2.531-2.527h-7.185V.483A.482.482 0 0072.842 0H67.7a.482.482 0 00-.483.483v.984h-7.186A2.532 2.532 0 0057.5 3.994v26.418a2.532 2.532 0 002.531 2.527h20.478a2.532 2.532 0 002.531-2.527V10.041a.483.483 0 10-.965 0v20.371a1.566 1.566 0 01-1.566 1.562H60.031a1.566 1.566 0 01-1.566-1.562V3.994a1.566 1.566 0 011.566-1.562h3.854v1.234h-3.7a.482.482 0 00-.482.483V25a.483.483 0 10.965 0V4.631h3.216v.984a.482.482 0 00.483.483h11.806a.482.482 0 00.483-.483v-.984h3.216v25.143h-19.2V27.53a.483.483 0 00-.965 0v2.726a.482.482 0 00.483.483h20.164a.482.482 0 00.482-.483V4.149a.482.482 0 00-.482-.483h-3.7V2.431h3.854a1.566 1.566 0 011.566 1.562V7.5a.482.482 0 00.482.483zM68.181.965h4.178v1.968h-4.178zm7.51 4.168H64.85v-2.7h2.366v.984a.482.482 0 00.484.483h5.143a.482.482 0 00.483-.483v-.986h2.366v2.7z" class="prefix__cls-1" data-name="Path 1024"/>
        <path id="prefix__Path_1025" d="M203 124.521h-2.406a.482.482 0 00-.482.482v1.551h-1.552a.482.482 0 00-.482.483v2.4a.482.482 0 00.482.482h1.552v1.551a.482.482 0 00.482.483H203a.482.482 0 00.483-.483v-1.551h1.565a.482.482 0 00.482-.482v-2.4a.482.482 0 00-.482-.483h-1.565V125a.483.483 0 00-.483-.479zm1.565 3v1.433H203a.482.482 0 00-.482.482v1.551h-1.441v-1.551a.482.482 0 00-.482-.482h-1.552v-1.434h1.552a.482.482 0 00.482-.483v-1.551h1.441v1.551a.482.482 0 00.482.483z" class="prefix__cls-1" data-name="Path 1025" transform="translate(-131.532 -116.51)"/>
        <path id="prefix__Path_1026" d="M132.9 270.635a.482.482 0 00.482.482h15.268a.482.482 0 100-.965h-15.267a.483.483 0 00-.483.483z" class="prefix__cls-1" data-name="Path 1026" transform="translate(-70.55 -252.772)"/>
        <path id="prefix__Path_1027" d="M133.383 316.117h13.982a.482.482 0 100-.965h-13.982a.482.482 0 100 .965z" class="prefix__cls-1" data-name="Path 1027" transform="translate(-70.55 -294.877)"/>
        <path id="prefix__Path_1028" d="M133.383 361.046h15.268a.482.482 0 100-.965h-15.268a.482.482 0 100 .965z" class="prefix__cls-1" data-name="Path 1028" transform="translate(-70.55 -336.916)"/>
        <path id="prefix__Path_1029" d="M327.038 423.081h-3a.483.483 0 100 .965h3a.483.483 0 100-.965z" class="prefix__cls-1" data-name="Path 1029" transform="translate(-248.937 -395.863)"/>
        <path id="prefix__Path_1030" d="M262.279 423.081a.483.483 0 100 .965h2.038a.483.483 0 100-.965z" class="prefix__cls-1" data-name="Path 1030" transform="translate(-191.153 -395.863)"/>
    </g>
</svg>
