<svg xmlns="http://www.w3.org/2000/svg" xmlns:xlink="http://www.w3.org/1999/xlink" width="403.726" height="180.163" viewBox="0 0 403.726 180.163">
  <defs>
    <clipPath id="clip-path">
      <path id="Path_14" data-name="Path 14" d="M-439.345,289.3h66.317v66.1h-66.317Zm26.787,7.815h12.743v18.955l18.954.1-.066,12.743-18.888-.1V347.7h-12.743V328.742l-18.955-.1.066-12.743,18.888.1Z" fill="none"/>
    </clipPath>
  </defs>
  <g id="Group_3" data-name="Group 3" transform="translate(611 -201)">
    <g id="Group_2" data-name="Group 2">
      <g id="DOCTOR" style="isolation: isolate">
        <g id="Group_4" data-name="Group 4" style="isolation: isolate">
          <path id="Path_8" data-name="Path 8" d="M-556.518,250.353v-1.874q6.285.351,13.68.35l14.155-.191q7.2,0,11.505,2.079a14.655,14.655,0,0,1,6.681,6.618,22.433,22.433,0,0,1,2.38,10.568,24.315,24.315,0,0,1-7.553,18.345q-7.555,7.236-20.281,7.236-.73,0-5.808-.174t-5.967-.174q-3.079,0-8.792.381v-1.873q5.174-.984,5.761-1.174a2.114,2.114,0,0,0,.841-.446,1.359,1.359,0,0,0,.349-.7,47.7,47.7,0,0,0,.222-5.4q.19-10.314.191-15.012l-.191-13.9.032-1.08q0-1.586-.92-2.031A49.073,49.073,0,0,0-556.518,250.353Zm13.553,39.386a72.355,72.355,0,0,0,8.632.635,20.129,20.129,0,0,0,8.951-1.746,17.418,17.418,0,0,0,7.664-7.49,25.476,25.476,0,0,0,2.619-12.092,25.16,25.16,0,0,0-.873-6.84,14.026,14.026,0,0,0-2.333-4.935,13.561,13.561,0,0,0-5.554-4.173q-3.427-1.445-9.9-1.445-3.9,0-9.2.477-.19,8.346-.191,18.916Q-543.156,282.217-542.965,289.739Z" fill="#097984"/>
          <path id="Path_9" data-name="Path 9" d="M-502.15,271.3q0-10.411,6.713-17.092t17.249-6.681q9.809,0,15.616,5.9t5.808,16.25q0,11.49-6.538,18.138t-17.2,6.649q-10,0-15.822-6.03T-502.15,271.3Zm6.951-.938q0,10.484,4.586,15.74a14.733,14.733,0,0,0,11.6,5.256,14.243,14.243,0,0,0,8.221-2.446,14.944,14.944,0,0,0,5.427-7.162,28.484,28.484,0,0,0,1.841-10.435,26.73,26.73,0,0,0-2.349-11.911,15.634,15.634,0,0,0-5.808-6.781,14.971,14.971,0,0,0-7.776-2.049,14.943,14.943,0,0,0-8.474,2.493,14.424,14.424,0,0,0-5.507,7.211A28.6,28.6,0,0,0-495.2,270.362Z" fill="#097984"/>
          <path id="Path_10" data-name="Path 10" d="M-410.395,285.8l1.333,2.412a44.232,44.232,0,0,1-9.792,4.728,31.178,31.178,0,0,1-9.7,1.524,23.307,23.307,0,0,1-11.567-2.9,19.01,19.01,0,0,1-7.875-8.22,25.834,25.834,0,0,1-2.677-11.79q0-10.57,6.892-17.3t18.237-6.729a49.492,49.492,0,0,1,15.527,2.857q-.063,2.793-.063,4.189a80.884,80.884,0,0,0,.476,8.537h-2.666q-1.174-5.553-2.505-7.648a9.06,9.06,0,0,0-4.312-3.349,19.023,19.023,0,0,0-7.356-1.253q-9.2,0-13.855,6.537-3.616,5.112-3.615,12.823,0,9.2,5.089,14.52t13.333,5.317a26.027,26.027,0,0,0,6.912-.921A46.51,46.51,0,0,0-410.395,285.8Z" fill="#097984"/>
          <path id="Path_11" data-name="Path 11" d="M-403.19,260.857h-2.444q.6-5.521,1.079-12.378,14.049.351,20.042.35,4.979,0,18.139-.35.412,7.078.953,12.378H-367.8q-1.488-5.808-1.932-6.807a2.8,2.8,0,0,0-1.282-1.429,12.337,12.337,0,0,0-4.259-.429h-7.031q-.255,8.444-.254,20.885,0,11.552.254,15.615a1.814,1.814,0,0,0,.476,1.3q.538.445,5.237,1.365.444.063,1.333.286v1.873q-6.285-.351-11.2-.35-4.665,0-9.553.35v-1.873q1.11-.287,1.682-.381,4.347-.73,5.015-1.239a1.534,1.534,0,0,0,.428-.713q.143-.461.238-7.031.127-10.155.127-15.043,0-8.538-.127-15.045h-7.554l-1.364.033a4.885,4.885,0,0,0-2.381.38,4.6,4.6,0,0,0-1.587,2.286A54.09,54.09,0,0,0-403.19,260.857Z" fill="#097984"/>
          <path id="Path_12" data-name="Path 12" d="M-362.216,271.3q0-10.411,6.713-17.092t17.25-6.681q9.807,0,15.615,5.9t5.808,16.25q0,11.49-6.538,18.138t-17.2,6.649q-10,0-15.822-6.03T-362.216,271.3Zm6.951-.938q0,10.484,4.586,15.74a14.733,14.733,0,0,0,11.6,5.256,14.243,14.243,0,0,0,8.221-2.446,14.944,14.944,0,0,0,5.427-7.162,28.484,28.484,0,0,0,1.841-10.435,26.729,26.729,0,0,0-2.349-11.911,15.634,15.634,0,0,0-5.808-6.781,14.971,14.971,0,0,0-7.776-2.049A14.946,14.946,0,0,0-348,253.067a14.425,14.425,0,0,0-5.507,7.211A28.6,28.6,0,0,0-355.265,270.362Z" fill="#097984"/>
          <path id="Path_13" data-name="Path 13" d="M-312.545,250.353v-1.874q8.411.351,13.488.35,2.921,0,5.459-.064,3.364-.126,4.666-.127,6.189,0,9.331,2.921a10.465,10.465,0,0,1,3.11,7.967,12.216,12.216,0,0,1-1.413,5.952,12.343,12.343,0,0,1-4.08,4.365,19.914,19.914,0,0,1-5.525,2.254l10.571,13.772a30.622,30.622,0,0,0,2.477,3.014,7.007,7.007,0,0,0,2.063,1.142,44.171,44.171,0,0,0,6,1.619v1.873q-5.014-.351-7.3-.35a42.763,42.763,0,0,0-5.395.35q-1.428-2.382-3.872-5.984t-2.984-4.268c-.212-.254-.412-.519-.6-.793l-6.982-9.586q-2.824-.063-5.713-.412l.254,16a2.058,2.058,0,0,0,.571,1.427q.762.636,4.761,1.366.572.094,1.745.381v1.873q-5.745-.351-10.124-.35-4.7,0-10.505.35v-1.873l1.364-.286q4.539-.858,5.158-1.413a2.855,2.855,0,0,0,.714-1.983q.063-.92.159-16.314l-.127-14.917a27.881,27.881,0,0,0-.175-3.935,1.2,1.2,0,0,0-.619-.762,16.833,16.833,0,0,0-4.919-1.365Q-311.5,250.575-312.545,250.353Zm13.3,19.423q3.3.35,5.11.349,5.775,0,8.553-2.575a9.273,9.273,0,0,0,2.777-7.154,8.281,8.281,0,0,0-2.46-6.327q-2.459-2.32-7.156-2.32-1.683,0-6.634.381Z" fill="#097984"/>
        </g>
      </g>
      <g id="Group_1" data-name="Group 1">
        <path id="Path_2" data-name="Path 2" d="M-519.777,315.1c-.715-5.566-.342-10.427-3.346-11.489-1.87,2.941-1.823,7.669-2.64,10.677-3.773.018-30.258-.606-33.278.831,1.676,2.328,2.189,1.4,10.25,1.375l22.422.123c4.12-.386,1.791.536,4-2.375.9,5.96-.092,6.111,2.555,7.74,2.221-2.032.535-.717,1.886-3.063,2.388-4.137.147-1.07,3.043-2.391,2.573-1.172,1.516,1.715,3.019-6.96,1.07,6.328-.184,18.248,2.819,23.115,2.1-1,1.43,1.265,2.682-7.4.4-2.765.871-5.456,1.176-8.332,3.974-1.121,37.017-.345,47.622-.407l1.092-3.169c.735,3.039.657,6.177,2.073,8.5,3.362-1.226.745.571,2.45-2.472,2.013-3.586-.386-1.317,2.635-2.711,2.581-1.191,1.716,1.116,2.881-2.437.478-1.46.164-2.44.907-4.131l1.677,20.415c.735,2.054-.063,1.287,1.865,2.1a19.983,19.983,0,0,0,2.111-7.167V309.083c-1.593,2.747-1.367,7.533-2.348,10.209a110.268,110.268,0,0,1-1.025-12.175l-.763-10.241c-.9-2.239.257-1.4-2.113-1.96-1.522,3.308-1.574,8.412-2.03,12.111-.706,5.739.664,8.041-5.648,7.719-.332-4.288-.324-9.986-3.086-11.19-2.091,2.941-1.678,7.1-2.76,10.6l-43.252.066c-1.949-7.256-.39-4.7-2.84-5.659-2.22,3.365-.864,7.322-2.834,10.615.013-4.1-.195-22.388-2.962-24.52-1.3,1.175-.59.02-1.291,1.935l-2.051,15.622c-1.157,3.91-.28,1.386-4.9,2.888Z" fill="#097984"/>
        <g id="_3183442780528" data-name=" 3183442780528">
          <g id="Group_6" data-name="Group 6">
            <g id="Group_5" data-name="Group 5" clip-path="url(#clip-path)">
              <g id="Group_1-2" data-name="Group 1-2">
                <rect id="Rectangle_2" data-name="Rectangle 2" width="66.317" height="66.096" transform="translate(-439.345 289.295)" fill="none"/>
              </g>
            </g>
          </g>
          <path id="Path_4" data-name="Path 4" d="M-412.556,297.11h12.742v19.944l-12.742-.066Zm12.742,30.707V347.7h-12.742V327.752Z" fill="#ed3237"/>
          <rect id="Rectangle_3" data-name="Rectangle 3" width="12.739" height="50.583" transform="translate(-431.511 328.642) rotate(-89.705)" fill="#ed3237"/>
        </g>
        <path id="Path_1" data-name="Path 1" d="M-371.423,316.866c.153-.074.314-.153.489-.232,2.472-1.142,1.249.992,2.618-1.872.711-1.493.023-2.084,1.173-4.073.429,4.411.279,19.576,2.736,22.169,3.768-2.534,1.97-12,4.141-16.276l46.363.024,1.986-2.42c.416,2.842.257,5.919,2.154,7.822,3.308-2.143.927-1.47,2.606-3.86,2.384-3.4.639-.077,4.623-2.312l1.287-6.289c.623,4.907.03,20.707,3.075,23.291,2.918-2.539,3.089-11.762,3.452-16.2,3.441-.037,33.536.435,35.919-.8-.945-2.563-6.03-1.583-9.565-1.582l-24.347-.1c-1.1-7.863-.648-5.133-2.978-5.533l-2.092,10.627c-1.209-6.241-.077-19.972-2.875-24.491-2.591,1.049-1.748.368-2.256,4.061-.245,1.748-.4,3.651-.623,5.425-.418,3.322-.777,6.615-1.444,10.014a12.364,12.364,0,0,0-4.458.706l-1.744-10.2c-.661-1.273-.1-.515-1.067-1.339-6,4.5,2.886,10.837-8.22,10.97l-38.133-.05c-.659-2.677-.4-4.612-2.5-5.886-.995,1.063-.475-.123-1.225,1.982l-1.747,8.785-1.96-22.74c-.625-1.914-.021-.653-.857-1.762-2.729,1.534-2.227,6.038-2.932,11.633-.667,5.292-.735,7.122-1.6,7.827v2.681Z" fill="#097984"/>
      </g>
    </g>
    <path id="Path_1-2" data-name="Path 1-2" d="M-611,280h33.793s8.882,68.9,79.933,67.28v33.883S-601.189,372.334-611,280Z" fill="#37bec4"/>
    <path id="Path_2-2" data-name="Path 2-2" d="M-207.274,302.162h-33.793s-8.882-68.9-79.933-67.28V201S-217.085,209.828-207.274,302.162Z" fill="#37bec4"/>
  </g>
</svg>
