<svg xmlns="http://www.w3.org/2000/svg" xmlns:xlink="http://www.w3.org/1999/xlink" width="300.24" height="107.868" viewBox="0 0 300.24 107.868">
  <defs>
    <clipPath id="clip-path">
      <path id="Path_7" data-name="Path 7" d="M-439.345,88.295h66.317v66.1h-66.317Zm26.787,7.815h12.743v18.955l18.954.1-.066,12.743-18.888-.1V146.7h-12.743V127.742l-18.955-.1.066-12.743,18.888.1Z" fill="none"/>
    </clipPath>
  </defs>
  <g id="Group_7" data-name="Group 7" transform="translate(-810.959 -373)">
    <g id="DOCTOR" transform="translate(1370 326.473)" style="isolation: isolate">
      <g id="Group_1" data-name="Group 1" style="isolation: isolate">
        <path id="Path_1" data-name="Path 1" d="M-558.279,49.828V47.479q7.394.351,12.219.35,3.681,0,10.188-.191,4.728-.159,7.9-.159A24.1,24.1,0,0,1-518.511,49a16.511,16.511,0,0,1,7.57,6.443q2.744,4.349,2.745,11.267a26.05,26.05,0,0,1-3.587,13.663,24.721,24.721,0,0,1-10.092,9.348,28.257,28.257,0,0,1-13.172,2.824q-.73,0-5.9-.206t-5.808-.206q-2.223,0-11.521.381v-2.35l1.339-.254q4.176-.729,4.893-1.364a2.772,2.772,0,0,0,.845-1.872q.128-1.842.127-19.266,0-12.789-.254-14.409a2.413,2.413,0,0,0-.793-1.618q-.634-.509-4.824-1.27Zm17.043,38.467a40.624,40.624,0,0,0,6.443.635q7.3,0,11.013-4.317,4.73-5.521,4.729-16.028,0-9.013-4.189-13.679-3.4-3.808-10.633-3.808a54.648,54.648,0,0,0-7.363.6q-.318,4.951-.317,18.377Q-541.553,77.79-541.236,88.295Z" fill="#097984"/>
        <path id="Path_2" data-name="Path 2" d="M-502.737,70.712q0-10.885,6.68-17.535t17.917-6.65q10.6,0,16.647,5.983t6.046,16.012a27.748,27.748,0,0,1-2.381,11.616,22.3,22.3,0,0,1-4.84,7.014,21.592,21.592,0,0,1-6.078,4.253,27.362,27.362,0,0,1-11.171,2.063q-10.855,0-16.838-6T-502.737,70.712ZM-491.756,69q0,11.553,4.19,16.98,3.109,4.063,8.918,4.062a10.9,10.9,0,0,0,6.745-2.062,12.433,12.433,0,0,0,4.11-6.618,37.013,37.013,0,0,0,1.364-10.585,45.93,45.93,0,0,0-.825-8.823,20.777,20.777,0,0,0-2.253-6.6,11.149,11.149,0,0,0-3.825-3.84,10.922,10.922,0,0,0-5.792-1.461,11.281,11.281,0,0,0-6.729,2.111,12.65,12.65,0,0,0-4.427,6.633A32.817,32.817,0,0,0-491.756,69Z" fill="#097984"/>
        <path id="Path_3" data-name="Path 3" d="M-408.538,83.788l1.619,3.047a42.874,42.874,0,0,1-10.141,5.126,31.342,31.342,0,0,1-9.728,1.507q-10.727,0-16.869-6.11T-449.8,70.9q0-10.98,6.919-17.678t19.138-6.7a44.8,44.8,0,0,1,7.538.619,71.129,71.129,0,0,1,9,2.3q-.191,2.064-.191,4.284,0,3.842.477,9.4h-3.492a63.621,63.621,0,0,0-2.094-7.141,9.954,9.954,0,0,0-3.857-4.031,13.763,13.763,0,0,0-7.252-1.65q-6.951,0-10.727,4.254-4.57,5.109-4.571,14.123,0,9.33,4.555,14.2t12.267,4.871A26.325,26.325,0,0,0-408.538,83.788Z" fill="#097984"/>
        <path id="Path_4" data-name="Path 4" d="M-360.645,60.841H-363.6q-2.19-6.7-2.682-7.585A2.745,2.745,0,0,0-367.659,52a23.249,23.249,0,0,0-5.65-.364h-3.078V81.28a31.7,31.7,0,0,0,.381,6.666,1.667,1.667,0,0,0,.936.968,38.159,38.159,0,0,0,5.76,1.253v2.35q-9.68-.351-12.441-.35-3.745,0-11.457.35v-2.35a30.576,30.576,0,0,0,6.03-1.4,1.845,1.845,0,0,0,.873-1.159,45.607,45.607,0,0,0,.238-6.648V51.638H-391.4a9.244,9.244,0,0,0-3.571.443,3.387,3.387,0,0,0-1.444,1.619,55.158,55.158,0,0,0-2.412,7.141h-2.888q.538-4.665.666-6.443t.286-6.919q12.568.351,24.565.286,10.156-.094,14.6-.286A110.881,110.881,0,0,0-360.645,60.841Z" fill="#097984"/>
        <path id="Path_5" data-name="Path 5" d="M-357.884,70.712q0-10.885,6.681-17.535t17.916-6.65q10.6,0,16.647,5.983t6.046,16.012a27.748,27.748,0,0,1-2.38,11.616,22.337,22.337,0,0,1-4.84,7.014,21.621,21.621,0,0,1-6.078,4.253,27.367,27.367,0,0,1-11.172,2.063q-10.854,0-16.837-6T-357.884,70.712ZM-346.9,69q0,11.553,4.189,16.98,3.109,4.063,8.919,4.062a10.9,10.9,0,0,0,6.744-2.062,12.421,12.421,0,0,0,4.11-6.618,36.975,36.975,0,0,0,1.365-10.585,46.011,46.011,0,0,0-.825-8.823,20.8,20.8,0,0,0-2.254-6.6,11.148,11.148,0,0,0-3.825-3.84,10.919,10.919,0,0,0-5.792-1.461A11.278,11.278,0,0,0-341,52.161a12.651,12.651,0,0,0-4.428,6.633A32.848,32.848,0,0,0-346.9,69Z" fill="#097984"/>
        <path id="Path_6" data-name="Path 6" d="M-307.452,49.828V47.479q10.737.351,12.675.35,2.064,0,5.971-.111t5.75-.112a18.142,18.142,0,0,1,7.369,1.207,9.551,9.551,0,0,1,4.241,3.84,11.069,11.069,0,0,1,1.6,5.871,12.9,12.9,0,0,1-1.142,5.317,13.248,13.248,0,0,1-3.047,4.332A16.922,16.922,0,0,1-278,70.712q2.158,3.714,6.316,10.506a50.518,50.518,0,0,0,3.976,5.967,7.31,7.31,0,0,0,2.01,1.523,26.024,26.024,0,0,0,6.011,1.459v2.35q-5.388-.351-8.781-.35-3.582,0-8.813.35-3.869-8.92-9.923-20.409-1.824-.063-3.808-.254l.127,13.2a8.08,8.08,0,0,0,.412,3.031,1.966,1.966,0,0,0,.984.841,57.184,57.184,0,0,0,5.681,1.237v2.35q-7.405-.351-11.886-.35-4.418,0-11.759.35v-2.35q5.371-.982,6.051-1.523a3.129,3.129,0,0,0,.868-2.126q.1-.858.127-16.283l-.028-9.457a76.664,76.664,0,0,0-.226-8.03,2.266,2.266,0,0,0-.873-1.476,15.732,15.732,0,0,0-4.49-1.158Zm16.473,18.441q1.59.063,2.355.062,4.456,0,6.573-2.11t2.116-6.427a8.755,8.755,0,0,0-2.005-6.2,7.1,7.1,0,0,0-5.443-2.143q-1.4,0-3.628.223Z" fill="#097984"/>
      </g>
    </g>
    <g id="Group_1-2" data-name="Group 1" transform="translate(1370 326.473)">
      <path id="Path_2-2" data-name="Path 2" d="M-519.777,114.1c-.715-5.566-.342-10.427-3.346-11.489-1.87,2.941-1.823,7.669-2.64,10.677-3.773.018-30.258-.606-33.278.831,1.676,2.328,2.189,1.4,10.25,1.375l22.422.123c4.12-.386,1.791.536,4-2.375.9,5.96-.092,6.111,2.555,7.74,2.221-2.032.535-.717,1.886-3.063,2.388-4.137.147-1.07,3.043-2.391,2.573-1.172,1.516,1.715,3.019-6.96,1.07,6.328-.184,18.248,2.819,23.115,2.1-1,1.43,1.265,2.682-7.4.4-2.765.871-5.456,1.176-8.332,3.974-1.121,37.017-.345,47.622-.407l1.092-3.169c.735,3.039.657,6.177,2.073,8.5,3.362-1.226.745.571,2.45-2.472,2.013-3.586-.386-1.317,2.635-2.711,2.581-1.191,1.716,1.116,2.881-2.437.478-1.46.164-2.44.907-4.131l1.677,20.415c.735,2.054-.063,1.287,1.865,2.1a19.982,19.982,0,0,0,2.111-7.167V108.083c-1.593,2.747-1.367,7.533-2.348,10.209a110.268,110.268,0,0,1-1.025-12.175l-.763-10.241c-.9-2.239.257-1.4-2.113-1.96-1.522,3.308-1.574,8.412-2.03,12.111-.706,5.739.664,8.041-5.648,7.719-.332-4.288-.324-9.986-3.086-11.19-2.091,2.941-1.678,7.1-2.76,10.6l-43.252.066c-1.949-7.256-.39-4.7-2.84-5.659-2.22,3.365-.864,7.322-2.834,10.615.013-4.1-.195-22.388-2.962-24.52-1.3,1.175-.59.02-1.291,1.935l-2.051,15.622c-1.157,3.91-.28,1.386-4.9,2.888Z" fill="#097984"/>
      <g id="_3183442780528" data-name=" 3183442780528">
        <g id="Group_3" data-name="Group 3">
          <g id="Group_2" data-name="Group 2" clip-path="url(#clip-path)">
            <g id="Group_1-2-2" data-name="Group 1-2">
              <rect id="Rectangle_2" data-name="Rectangle 2" width="66.317" height="66.096" transform="translate(-439.345 88.295)" fill="none"/>
            </g>
          </g>
        </g>
        <path id="Path_4-2" data-name="Path 4" d="M-412.556,96.11h12.742v19.944l-12.742-.066Zm12.742,30.707V146.7h-12.742V126.752Z" fill="#ed3237"/>
        <rect id="Rectangle_3" data-name="Rectangle 3" width="12.739" height="50.583" transform="translate(-431.511 127.642) rotate(-89.705)" fill="#ed3237"/>
      </g>
      <path id="Path_1-2" data-name="Path 1" d="M-371.423,115.866c.153-.074.314-.153.489-.232,2.472-1.142,1.249.992,2.618-1.872.711-1.493.023-2.084,1.173-4.073.429,4.411.279,19.576,2.736,22.169,3.768-2.534,1.97-12,4.141-16.276l46.363.024,1.986-2.42c.416,2.842.257,5.919,2.154,7.822,3.308-2.143.927-1.47,2.606-3.86,2.384-3.4.639-.077,4.623-2.312l1.287-6.289c.623,4.907.03,20.707,3.075,23.291,2.918-2.539,3.089-11.762,3.452-16.2,3.441-.037,33.536.435,35.919-.8-.945-2.563-6.03-1.583-9.565-1.582l-24.347-.1c-1.1-7.863-.648-5.133-2.978-5.533l-2.092,10.627c-1.209-6.241-.077-19.972-2.875-24.491-2.591,1.049-1.748.368-2.256,4.061-.245,1.748-.4,3.651-.623,5.425-.418,3.322-.777,6.615-1.444,10.014a12.364,12.364,0,0,0-4.458.706l-1.744-10.2c-.661-1.273-.1-.515-1.067-1.339-6,4.5,2.886,10.837-8.22,10.97l-38.133-.05c-.659-2.677-.4-4.612-2.5-5.886-.995,1.063-.475-.123-1.225,1.982l-1.747,8.785-1.96-22.74c-.625-1.914-.021-.653-.857-1.762-2.729,1.534-2.227,6.038-2.932,11.633-.667,5.292-.735,7.122-1.6,7.827v2.681Z" fill="#097984"/>
    </g>
  </g>
</svg>
