<svg xmlns="http://www.w3.org/2000/svg" width="19.2" height="18.8" viewBox="0 0 19.2 18.8">
  <path id="Icon_map-doctor" data-name="Icon map-doctor" d="M17.17,5.2H15.2V3.11A2.683,2.683,0,0,0,12.522.4H7.478A2.682,2.682,0,0,0,4.8,3.11V5.2H2.83A2.386,2.386,0,0,0,.4,7.575v9.2A2.426,2.426,0,0,0,2.83,19.2H17.17a2.427,2.427,0,0,0,2.43-2.423v-9.2A2.386,2.386,0,0,0,17.17,5.2ZM6.4,3.11A1.155,1.155,0,0,1,7.478,2h5.044A1.156,1.156,0,0,1,13.6,3.11V5.2H6.4ZM14.4,14H11.6v2.8H8.4V14H5.6V10.8H8.4V8h3.2v2.8h2.8V14Z" transform="translate(-0.4 -0.4)" fill="#fff"/>
</svg>
