<svg xmlns="http://www.w3.org/2000/svg" width="15.039" height="15.044" viewBox="0 0 15.039 15.044">
    <defs>
        <linearGradient id="prefix__linear-gradient" x1=".5" x2=".5" y2="1" gradientUnits="objectBoundingBox">
            <stop offset="0" stop-color="#19769f"/>
            <stop offset="1" stop-color="#35d8a6"/>
        </linearGradient>
        <style>
            .prefix__cls-1{fill:url(#prefix__linear-gradient)}
        </style>
    </defs>
    <g id="prefix__pay" transform="translate(-.501)">
        <path id="prefix__Path_796" d="M286.716 151.957a.294.294 0 10.294.294.294.294 0 00-.294-.294zm0 0" class="prefix__cls-1" data-name="Path 796" transform="translate(-277.52 -147.493)"/>
        <path id="prefix__Path_797" d="M219.226 330.7a.294.294 0 10-.416 0 .294.294 0 00.416 0zm0 0" class="prefix__cls-1" data-name="Path 797" transform="translate(-211.812 -320.492)"/>
        <path id="prefix__Path_798" d="M3.885 221.037a.294.294 0 00.415 0l1.424-1.4a.888.888 0 00.209-.912l.306-.3a.876.876 0 01.612-.247h3.9a2.63 2.63 0 001.844-.749c.02-.02-.155.187 2.664-3.182a1.175 1.175 0 00-1.788-1.525l-1.733 1.782a1.18 1.18 0 00-.913-.437H7.553a3.789 3.789 0 00-1.471-.294 3.634 3.634 0 00-3.312 1.878.877.877 0 00-.786.243l-1.4 1.4a.294.294 0 000 .414zm2.2-6.673a3.207 3.207 0 011.293.269.293.293 0 00.118.025h3.336a.587.587 0 110 1.175h-2.4a.294.294 0 100 .587h2.4a1.173 1.173 0 001.165-1.329c1.677-1.724 1.913-1.966 1.923-1.978a.588.588 0 11.9.759l-2.635 3.15a2.045 2.045 0 01-1.424.573H6.85a1.46 1.46 0 00-1.02.412l-.25.241-2.3-2.3a3.033 3.033 0 012.8-1.583zM2.4 216.313a.293.293 0 01.364-.041c.045.027 2.557 2.546 2.573 2.567a.3.3 0 01-.027.381l-1.214 1.2-2.886-2.908zm0 0" class="prefix__cls-1" data-name="Path 798" transform="translate(0 -206.081)"/>
        <path id="prefix__Path_799" d="M127.346 6.227h7.05a.882.882 0 00.881-.881V.881A.882.882 0 00134.4 0h-7.05a.882.882 0 00-.881.881v4.465a.882.882 0 00.877.881zm7.343-3.877h-7.637v-.588h7.637zm-.294 3.29h-7.05a.294.294 0 01-.294-.294V2.937h7.637v2.409a.294.294 0 01-.288.293zM127.346.587h7.05a.294.294 0 01.294.294v.294h-7.637V.881a.294.294 0 01.294-.294zm0 0" class="prefix__cls-1" data-name="Path 799" transform="translate(-122.263)"/>
        <path id="prefix__Path_800" d="M327.879 151.957H326.7a.294.294 0 000 .588h1.175a.294.294 0 100-.588zm0 0" class="prefix__cls-1" data-name="Path 800" transform="translate(-316.334 -147.493)"/>
    </g>
</svg>
