<svg xmlns="http://www.w3.org/2000/svg" width="37.267" height="37.08" viewBox="0 0 37.267 37.08">
  <g id="rating" transform="translate(-2.479 -1.448)">
    <g id="Group_1680" data-name="Group 1680" transform="translate(3.03 9.294)">
      <g id="Group_1674" data-name="Group 1674" transform="translate(0 0)">
        <g id="Group_1670" data-name="Group 1670" transform="translate(4.21 1.827)">
          <path id="Path_724" data-name="Path 724" d="M67.733,144.147l-.421-3.37a1.39,1.39,0,1,1,2.762-.311l.334,7.629-2.034.334Z" transform="translate(-67.298 -139.196)" fill="#ffe1a0"/>
        </g>
        <g id="Group_1672" data-name="Group 1672">
          <path id="Path_726" data-name="Path 726" d="M24.069,143.005c-.668-2.259-1.648-5.8-.873-8.061.707-2.066-.087-3.978-1.63-5.857-.276-.335-2.552-3.294-3.42-4.435a1.576,1.576,0,0,0-2.873,1.083l-.01-.018-1.313-9.5a1.986,1.986,0,0,0-3.969.09c.4,3.214,1.068,6.387,1.492,9.6.335,2.534.339,5.089,2.351,7.007a22.207,22.207,0,0,1,2.443,2.339,3.271,3.271,0,0,1,.591,1.794c.057.8-.647,5.963-.647,5.963h7.859Z" transform="translate(-9.98 -114.322)" fill="#ffe1a0"/>
        </g>
      </g>
      <g id="Group_1679" data-name="Group 1679" transform="translate(22.075)">
        <g id="Group_1675" data-name="Group 1675" transform="translate(6.77 1.827)">
          <path id="Path_728" data-name="Path 728" d="M405.378,144.147l.421-3.37a1.39,1.39,0,1,0-2.762-.311l-.334,7.629,2.034.334Z" transform="translate(-402.703 -139.196)" fill="#ffe1a0"/>
        </g>
        <g id="Group_1677" data-name="Group 1677">
          <path id="Path_730" data-name="Path 730" d="M310.531,143c.668-2.258,1.648-5.8.873-8.061-.707-2.066.087-3.978,1.63-5.857.276-.335,2.552-3.294,3.42-4.435a1.576,1.576,0,0,1,2.873,1.083l.01-.018,1.313-9.5a1.986,1.986,0,0,1,3.969.09c-.4,3.214-1.068,6.387-1.492,9.6-.335,2.534-.339,5.089-2.351,7.007a22.214,22.214,0,0,0-2.444,2.339,3.27,3.27,0,0,0-.591,1.794c-.057.8.647,5.963.647,5.963Z" transform="translate(-310.531 -114.321)" fill="#ffe1a0"/>
        </g>
      </g>
    </g>
    <g id="Group_1683" data-name="Group 1683" transform="translate(16.473 1.448)">
      <g id="Group_1681" data-name="Group 1681">
        <path id="Path_732" data-name="Path 732" d="M198.325,7.965l.77,1.56a.83.83,0,0,0,.625.454l1.721.25a.83.83,0,0,1,.46,1.416l-1.246,1.214a.83.83,0,0,0-.239.735l.294,1.714a.83.83,0,0,1-1.2.875l-1.54-.809a.83.83,0,0,0-.773,0l-1.54.809a.83.83,0,0,1-1.2-.875l.294-1.714a.831.831,0,0,0-.239-.735l-1.246-1.214a.83.83,0,0,1,.46-1.416l1.721-.25a.831.831,0,0,0,.625-.454l.77-1.56A.83.83,0,0,1,198.325,7.965Z" transform="translate(-193.008 -7.502)" fill="#19769f"/>
      </g>
    </g>
    <g id="Group_1691" data-name="Group 1691" transform="translate(2.479 8.743)">
      <g id="Group_1686" data-name="Group 1686" transform="translate(10.016 2.922)">
        <g id="Group_1684" data-name="Group 1684">
          <path id="Path_734" data-name="Path 734" d="M143.214,146.99l.633,1.282a.683.683,0,0,0,.514.373l1.415.206a.683.683,0,0,1,.378,1.164l-1.024,1a.683.683,0,0,0-.2.6l.242,1.409a.683.683,0,0,1-.991.72l-1.266-.665a.683.683,0,0,0-.635,0l-1.266.665a.683.683,0,0,1-.991-.72l.242-1.409a.683.683,0,0,0-.2-.6l-1.024-1a.683.683,0,0,1,.378-1.164l1.415-.206a.683.683,0,0,0,.514-.373l.633-1.282A.683.683,0,0,1,143.214,146.99Z" transform="translate(-138.842 -146.609)" fill="#5fe5bc"/>
        </g>
      </g>
      <g id="Group_1690" data-name="Group 1690" transform="translate(0)">
        <g id="Group_1687" data-name="Group 1687" transform="translate(19.732 2.922)">
          <path id="Path_736" data-name="Path 736" d="M275.494,146.99l.633,1.282a.683.683,0,0,0,.514.373l1.415.206a.683.683,0,0,1,.378,1.164l-1.024,1a.683.683,0,0,0-.2.6l.242,1.409a.683.683,0,0,1-.991.72l-1.266-.665a.683.683,0,0,0-.635,0l-1.266.665a.683.683,0,0,1-.991-.72l.242-1.409a.683.683,0,0,0-.2-.6l-1.024-1a.683.683,0,0,1,.378-1.164l1.415-.206a.683.683,0,0,0,.514-.373l.633-1.282A.683.683,0,0,1,275.494,146.99Z" transform="translate(-271.122 -146.609)" fill="#5fe5bc"/>
        </g>
        <g id="Group_1689" data-name="Group 1689">
          <path id="Path_738" data-name="Path 738" d="M16.767,128.176c.7-2.035.131-4.123-1.726-6.385-.264-.321-2.488-3.211-3.4-4.406a2.115,2.115,0,0,0-.761-.683l-.316-6.257c0-.007,0-.013,0-.02A1.941,1.941,0,0,0,7.526,109a2.537,2.537,0,0,0-5.047.359.546.546,0,0,0,0,.069c.163,1.312.372,2.618.536,3.61a.551.551,0,1,0,1.087-.18c-.161-.972-.365-2.249-.525-3.529a1.435,1.435,0,0,1,2.867-.033c0,.017,1.332,9.621,1.336,9.634a2.12,2.12,0,0,0,.326.83l2.336,3.709a.551.551,0,1,0,.933-.587l-2.34-3.715-.008-.012a1.026,1.026,0,1,1,1.706-1.139l.02.028c.84,1.1,3.14,4.094,3.433,4.451,1.617,1.969,2.1,3.662,1.535,5.329-.771,2.254.068,5.63.659,7.688H9.89c.191-1.445.615-4.766.566-5.451a3.754,3.754,0,0,0-.7-2.092,11.817,11.817,0,0,0-1.689-1.678c-.271-.235-.552-.478-.81-.724-1.59-1.516-1.817-3.511-2.058-5.623-.039-.346-.08-.7-.127-1.058-.163-1.23-.361-2.454-.534-3.488a.551.551,0,1,0-1.087.182c.171,1.025.368,2.237.528,3.451.045.345.086.7.125,1.038.252,2.214.513,4.5,2.392,6.3.278.265.568.516.849.76a10.823,10.823,0,0,1,1.538,1.517,2.707,2.707,0,0,1,.477,1.5c.038.541-.374,3.875-.643,5.85a.551.551,0,0,0,.546.625h7.859a.551.551,0,0,0,.528-.707C17.117,134.109,16.014,130.38,16.767,128.176ZM8.7,116.812c-.033.022-.064.044-.1.068l-.386-2.8L7.8,110.708a.839.839,0,1,1,1.667-.2l.3,5.946A2.115,2.115,0,0,0,8.7,116.812Z" transform="translate(-2.479 -106.825)" fill="#19769f"/>
          <path id="Path_739" data-name="Path 739" d="M317.366,107.463A2.537,2.537,0,0,0,313.173,109a1.941,1.941,0,0,0-3.038,1.427c0,.007,0,.013,0,.02l-.316,6.259a2.114,2.114,0,0,0-.761.682c-.909,1.195-3.134,4.085-3.4,4.406-1.857,2.261-2.422,4.35-1.726,6.385.754,2.2-.35,5.934-.88,7.726a.551.551,0,0,0,.528.707h7.859a.551.551,0,0,0,.546-.625c0-.012-.164-1.205-.324-2.514l0-.011-.023-.161a.551.551,0,0,0-1.091.156l.022.156c.089.73.179,1.423.242,1.9h-6.494c.591-2.059,1.43-5.435.659-7.688-.57-1.667-.082-3.36,1.535-5.329.287-.35,3.446-4.469,3.453-4.479a1.026,1.026,0,1,1,1.706,1.139l-.008.012-2.34,3.715a.551.551,0,1,0,.932.587l2.336-3.71a2.12,2.12,0,0,0,.327-.832c.007-.025,1.334-9.615,1.335-9.631a1.435,1.435,0,0,1,2.867.033c-.207,1.66-.492,3.342-.767,4.97-.254,1.5-.807,5.3-.846,5.644-.241,2.112-.468,4.107-2.058,5.623-.258.246-.539.489-.81.724a11.814,11.814,0,0,0-1.689,1.677,3.755,3.755,0,0,0-.7,2.092,6.084,6.084,0,0,0,.035.877.551.551,0,0,0,.549.506l.046,0a.551.551,0,0,0,.5-.594,5.71,5.71,0,0,1-.034-.709,2.708,2.708,0,0,1,.477-1.5,10.811,10.811,0,0,1,1.538-1.517c.281-.243.572-.5.85-.76,1.879-1.792,2.14-4.081,2.392-6.3.039-.341.079-.694.125-1.038.2-1.518.461-3.058.713-4.547.279-1.651.568-3.358.779-5.055a.548.548,0,0,0,0-.069,2.539,2.539,0,0,0-.853-1.892Zm-4.468,3.251-.42,3.364-.387,2.8q-.047-.035-.1-.068a2.114,2.114,0,0,0-1.064-.354l.3-5.947a.839.839,0,1,1,1.666.2Z" transform="translate(-280.953 -106.824)" fill="#19769f"/>
        </g>
      </g>
    </g>
  </g>
</svg>
