<svg xmlns="http://www.w3.org/2000/svg" id="prefix__smile" width="12.504" height="12.504" viewBox="0 0 12.504 12.504">
    <defs>
        <linearGradient id="prefix__linear-gradient" x1=".5" x2=".5" y2="1" gradientUnits="objectBoundingBox">
            <stop offset="0" stop-color="#19769f"/>
            <stop offset="1" stop-color="#35d8a6"/>
        </linearGradient>
        <style>
            .prefix__cls-1{fill:url(#prefix__linear-gradient)}
        </style>
    </defs>
    <g id="prefix__Group_1699" data-name="Group 1699">
        <g id="prefix__Group_1698" data-name="Group 1698">
            <path id="prefix__Path_808" d="M10.673 1.831a6.252 6.252 0 00-8.842 8.842 6.252 6.252 0 008.842-8.842zm-4.421 9.7a5.275 5.275 0 115.275-5.275 5.281 5.281 0 01-5.275 5.271z" class="prefix__cls-1" data-name="Path 808"/>
        </g>
    </g>
    <g id="prefix__Group_1701" data-name="Group 1701" transform="translate(2.571 6.96)">
        <g id="prefix__Group_1700" data-name="Group 1700">
            <path id="prefix__Path_809" d="M111.7 285.025a3.5 3.5 0 01-.611 1.035 2.643 2.643 0 01-2.09.973 2.812 2.812 0 01-2.157-.984 3.761 3.761 0 01-.667-1.043l-.915.342a4.679 4.679 0 00.831 1.325A3.8 3.8 0 00109 288.01a3.629 3.629 0 002.86-1.347 4.422 4.422 0 00.77-1.335z" class="prefix__cls-1" data-name="Path 809" transform="translate(-105.262 -285.006)"/>
        </g>
    </g>
    <g id="prefix__Group_1703" data-name="Group 1703" transform="translate(3.321 3.617)">
        <g id="prefix__Group_1702" data-name="Group 1702">
            <circle id="prefix__Ellipse_70" cx=".781" cy=".781" r=".781" class="prefix__cls-1" data-name="Ellipse 70"/>
        </g>
    </g>
    <g id="prefix__Group_1705" data-name="Group 1705" transform="translate(7.62 3.617)">
        <g id="prefix__Group_1704" data-name="Group 1704">
            <circle id="prefix__Ellipse_71" cx=".781" cy=".781" r=".781" class="prefix__cls-1" data-name="Ellipse 71"/>
        </g>
    </g>
</svg>
