<svg xmlns="http://www.w3.org/2000/svg" width="32.296" height="37.08" viewBox="0 0 32.296 37.08">
  <g id="staff" transform="translate(-5 -1)">
    <path id="Path_759" data-name="Path 759" d="M35.138,11.569V25.923A4.751,4.751,0,0,1,34.02,29l-2.368-.969-1.746-.712-.455-.185a2.4,2.4,0,0,1-1.489-2.219V24.17a10.479,10.479,0,0,0,4.785-8.8v-2.6a22.659,22.659,0,0,1-4.677-.49,22.784,22.784,0,0,1-4.48-1.453l-1.011-.449-.532.155a5.028,5.028,0,0,0-3.654,4.838,10.479,10.479,0,0,0,4.785,8.8v.742a2.4,2.4,0,0,1-1.489,2.219l-.455.185-1.746.712L17.118,29A4.751,4.751,0,0,1,16,25.923V11.569a9.569,9.569,0,1,1,19.138,0Z" transform="translate(-4.421 -0.402)" fill="#5fe5bc"/>
    <path id="Path_760" data-name="Path 760" d="M26.543,48.283l-1.621,2.428-3.092-5.67,1.746-.712,1.2,1.6Z" transform="translate(-6.765 -17.416)" fill="#5fe5bc"/>
    <path id="Path_761" data-name="Path 761" d="M39,45.042l-3.092,5.67L34.29,48.283l1.77-2.356,1.2-1.6Z" transform="translate(-11.773 -17.416)" fill="#5fe5bc"/>
    <path id="Path_762" data-name="Path 762" d="M41.569,55.376H32V50.592l1.37-1.83L34.99,51.19l3.092-5.67,2.368.969,1.561.64a8.919,8.919,0,0,1,5.538,8.247Z" transform="translate(-10.852 -17.894)" fill="#5fe5bc"/>
    <path id="Path_763" data-name="Path 763" d="M11.981,55.376H6a8.911,8.911,0,0,1,5.538-8.247l1.561-.64,2.368-.969,3.092,5.67,1.621-2.428,1.37,1.83v4.785Z" transform="translate(-0.402 -17.894)" fill="#5fe5bc"/>
    <path id="Path_764" data-name="Path 764" d="M33.03,47l-1.77,2.356-1.37,1.83-1.37-1.83L26.75,47Z" transform="translate(-8.742 -18.489)" fill="#5fe5bc"/>
    <path id="Path_765" data-name="Path 765" d="M33.422,42.216l-1.2,1.6h-6.28l-1.2-1.6.455-.185a2.4,2.4,0,0,0,1.489-2.219V39.07a10.524,10.524,0,0,0,2.392,1.154,10.524,10.524,0,0,0,2.392-1.154v.742a2.4,2.4,0,0,0,1.489,2.219Z" transform="translate(-7.938 -15.302)" fill="#ffe1a0"/>
    <path id="Path_766" data-name="Path 766" d="M34.354,18.392v2.6a10.512,10.512,0,0,1-7.177,9.958A10.494,10.494,0,0,1,20,20.994a5.028,5.028,0,0,1,3.654-4.838L24.186,16l1.011.449a22.784,22.784,0,0,0,4.48,1.453A22.659,22.659,0,0,0,34.354,18.392Z" transform="translate(-6.029 -6.029)" fill="#ffe1a0"/>
    <ellipse id="Ellipse_62" data-name="Ellipse 62" cx="0.5" cy="1" rx="0.5" ry="1" transform="translate(17 14)" fill="#19769f"/>
    <ellipse id="Ellipse_63" data-name="Ellipse 63" cx="0.5" cy="1" rx="0.5" ry="1" transform="translate(24 14)" fill="#19769f"/>
    <path id="Path_767" data-name="Path 767" d="M30.392,33.2A1.2,1.2,0,0,1,29.2,32H28a2.392,2.392,0,1,0,4.785,0h-1.2A1.2,1.2,0,0,1,30.392,33.2Z" transform="translate(-9.244 -12.46)" fill="#19769f"/>
    <path id="Path_768" data-name="Path 768" d="M31.388,28.684l-.869-.355a5.39,5.39,0,0,0,.8-2.808V11.167a10.167,10.167,0,1,0-20.334,0V25.521a5.391,5.391,0,0,0,.795,2.807l-.868.355A9.473,9.473,0,0,0,5,37.482v.6H37.3v-.6a9.472,9.472,0,0,0-5.907-8.8ZM12.177,25.521V11.167a8.971,8.971,0,1,1,17.942,0V25.521a4.178,4.178,0,0,1-.736,2.343l-4.131-1.69a1.787,1.787,0,0,1-1.114-1.661v-.429a11.073,11.073,0,0,0,4.785-9.118v-3.2h-.6a21.808,21.808,0,0,1-8.914-1.892L18.2,9.336l-.743.212a5.658,5.658,0,0,0-4.086,5.417,11.074,11.074,0,0,0,4.785,9.118v.429a1.786,1.786,0,0,1-1.115,1.66l-4.131,1.69A4.182,4.182,0,0,1,12.177,25.521Zm8.971,6.18L19.2,29.109h3.887Zm0-7.411a9.884,9.884,0,0,1-6.579-9.324A4.456,4.456,0,0,1,17.787,10.7l.325-.093.812.361a22.981,22.981,0,0,0,8.8,1.987v2.012A9.881,9.881,0,0,1,21.148,24.29Zm-1.816.511a11.112,11.112,0,0,0,1.626.689l.19.063.189-.063a11.178,11.178,0,0,0,1.626-.689,2.964,2.964,0,0,0,1.591,2.357l-.566.755H18.307l-.566-.755A2.966,2.966,0,0,0,19.332,24.8ZM16.61,27.643l2.434,3.246-.835,1.252-2.3-4.212Zm9.076,0,.7.286-2.3,4.212-.835-1.252ZM11.36,29.79,14.8,28.384l3.309,6.066,1.7-2.547.745.993v3.987H12.177V33.3h-1.2v3.588H6.217A8.278,8.278,0,0,1,11.36,29.79Zm19.955,7.094V33.3h-1.2v3.588H21.746V32.9l.745-.993,1.7,2.547L27.5,28.384l3.438,1.407a8.277,8.277,0,0,1,5.143,7.093Z" transform="translate(0)" fill="#19769f"/>
    <path id="Path_769" data-name="Path 769" d="M42.838,16.146l1.192-.1a7.863,7.863,0,0,0-.218-1.3l-1.158.3A6.555,6.555,0,0,1,42.838,16.146Z" transform="translate(-15.134 -5.527)" fill="#19769f"/>
    <path id="Path_770" data-name="Path 770" d="M37.982,10.034l1.087-.5A7.8,7.8,0,0,0,32,5V6.2A6.6,6.6,0,0,1,37.982,10.034Z" transform="translate(-10.852 -1.608)" fill="#19769f"/>
  </g>
</svg>
