<svg xmlns="http://www.w3.org/2000/svg" width="187.5" height="201.175" viewBox="0 0 187.5 201.175">
  <g id="undraw_medical_research_qg4d" transform="translate(0 -20.448)">
    <rect id="Rectangle_566" data-name="Rectangle 566" width="39.697" height="44.389" transform="translate(54.695 109.785)" fill="#ccc"/>
    <path id="Path_739" data-name="Path 739" d="M55.932,545.322H35.722L33.557,528H58.1Z" transform="translate(-21.447 -324.385)" fill="#e6e6e6"/>
    <path id="Path_740" data-name="Path 740" d="M379.507,701.755l-.682,9.323a2.968,2.968,0,0,0,3.14,3.179l4.789-.29a1.514,1.514,0,0,0,1.377-1.878l-2.658-10.633Z" transform="translate(-304.44 -493.365)" fill="#e6e6e6"/>
    <path id="Path_741" data-name="Path 741" d="M490.532,707.522c5.636,1.318,9.662,3.193,12.307,5.729a5.426,5.426,0,0,0,3.473,1.489,8.877,8.877,0,0,0,4.034-.554h0a1.6,1.6,0,0,0,.947-1.318,1.627,1.627,0,0,0-.682-1.5l-13.367-9.511-5.678,2.271-1.324,1.325a1.312,1.312,0,0,0,.289,2.073Z" transform="translate(-375.409 -493.618)" fill="#e6e6e6"/>
    <path id="Path_742" data-name="Path 742" d="M376,222.729l-38.208-.354a32.639,32.639,0,0,1,4.221-15.92,14.5,14.5,0,0,0,1.371-9.652,12.977,12.977,0,0,1,4.488-12.086,14.405,14.405,0,0,1,9.687-3.205l.742.031a14.438,14.438,0,0,1,11.862,7.135A12.027,12.027,0,0,1,371.59,196a12.132,12.132,0,0,0,1.693,7.218C375.621,208.557,376.128,215.383,376,222.729Z" transform="translate(-278.219 -161.051)" fill="#2f2e41"/>
    <path id="Path_743" data-name="Path 743" d="M396.122,536.361l-7.5,1.956-36.516-79.552,2.282,77.6h-7.5c-8.013-36.507-22.48-78.639-15.976-91.941l38.8-2.282Z" transform="translate(-272.781 -327.63)" fill="#5fe5bc"/>
    <circle id="Ellipse_10" data-name="Ellipse 10" cx="10.107" cy="10.107" r="10.107" transform="translate(68.894 28.11)" fill="#ffb9b9"/>
    <path id="Path_744" data-name="Path 744" d="M386.576,261.446l-16.628-.978a18.273,18.273,0,0,0,1.63-10.759h12.389C383.94,252.332,385.245,256.871,386.576,261.446Z" transform="translate(-298.772 -204.645)" fill="#ffb9b9"/>
    <path id="Path_745" data-name="Path 745" d="M207.543,172.584l-36.515,2.608,3.749-64.717,6.358-1.793,7.173,1.63,7.173-3.586,4.564,1.63Z" transform="translate(-109.307 -55.141)" fill="#5fe5bc"/>
    <path id="Path_746" data-name="Path 746" d="M316.743,380.257,291.8,374.552c7.416-24.594,20.777-80.857,16.465-100.907l13.041-5.869Z" transform="translate(-248.828 -216.193)" fill="#e6e6e6"/>
    <path id="Path_747" data-name="Path 747" d="M310.744,317.267l-9.455-5.869,8.063-23.616a11.141,11.141,0,0,1,4.87-5.784l2.716-1.573-1.63,23.8Z" transform="translate(-254.891 -224.277)" fill="#e6e6e6"/>
    <path id="Path_748" data-name="Path 748" d="M439.689,373.724c-7.872,4.554-27.55,7.093-36.189,3.912-.636-22.221-1.883-85.075,2.119-111.666l14.345,5.869-1.3,17.606C411.8,304.505,431.716,356.962,439.689,373.724Z" transform="translate(-319.771 -215.038)" fill="#e6e6e6"/>
    <path id="Path_749" data-name="Path 749" d="M292.751,154.436l-8.8-2.934-11.737-13.368,1.956-16.954,19.562,27.387Z" transform="translate(-173.974 -64.38)" fill="#e6e6e6"/>
    <path id="Path_750" data-name="Path 750" d="M425.3,401.368a2.449,2.449,0,0,0,2.925,1.845l7.472-1.692-1.08-4.77-7.473,1.692A2.446,2.446,0,0,0,425.3,401.368Z" transform="translate(-334.107 -298.623)" fill="#ffb9b9"/>
    <path id="Path_751" data-name="Path 751" d="M382.534,208.5a21.532,21.532,0,0,0-16.628-.326l-2.282-8.151H384.49Z" transform="translate(-294.731 -172.888)" fill="#2f2e41"/>
    <path id="Path_752" data-name="Path 752" d="M444.029,371.16l4.238,7.825c7.129-1.988,13.307-8.257,19.236-15.65l-1.63-5.217-10.107,2.608Z" transform="translate(-346.118 -273.932)" fill="#e6e6e6"/>
    <path id="Path_753" data-name="Path 753" d="M419.28,291.8h-1.3c0-18.445-3.8-31.3-7.5-31.3l-.326-1.3c3.319,0,5.435,5.35,6.626,9.838A92.857,92.857,0,0,1,419.28,291.8Z" transform="translate(-324.466 -210.708)" fill="#3f3d56"/>
    <path id="Path_754" data-name="Path 754" d="M350.022,288.388h-1.3c0-16.893,3.824-27.387,9.455-27.387l-.326,1.3C353.952,262.305,350.022,270.37,350.022,288.388Z" transform="translate(-285.204 -211.863)" fill="#3f3d56"/>
    <circle id="Ellipse_11" data-name="Ellipse 11" cx="3.26" cy="3.26" r="3.26" transform="translate(90.901 78.156)" fill="#3f3d56"/>
    <path id="Path_755" data-name="Path 755" d="M335.567,343.559h-1.3c0-4.674,2.633-8.477,5.869-8.477v1.3C337.615,336.386,335.567,339.6,335.567,343.559Z" transform="translate(-275.965 -259.209)" fill="#3f3d56"/>
    <path id="Path_756" data-name="Path 756" d="M356.394,343.559h-1.3c0-3.955-2.048-7.173-4.564-7.173v-1.3C353.761,335.082,356.394,338.885,356.394,343.559Z" transform="translate(-286.359 -259.209)" fill="#3f3d56"/>
    <circle id="Ellipse_12" data-name="Ellipse 12" cx="1.304" cy="1.304" r="1.304" transform="translate(68.079 83.372)" fill="#3f3d56"/>
    <circle id="Ellipse_13" data-name="Ellipse 13" cx="1.304" cy="1.304" r="1.304" transform="translate(57.646 83.372)" fill="#3f3d56"/>
    <path id="Path_757" data-name="Path 757" d="M118.177,165.193l8.137,1.453,18.6,26.444-9.88-2.325Z" transform="translate(-75.529 -92.509)" fill="#5fe5bc"/>
    <path id="Path_758" data-name="Path 758" d="M285.693,325.347a.692.692,0,0,0-.568,1.072L302.509,352.8a.69.69,0,0,0,.419.292l8.088,1.9a.691.691,0,0,0,.723-1.07l-19.087-27.139a.687.687,0,0,0-.444-.283l-6.386-1.14A.747.747,0,0,0,285.693,325.347Z" transform="translate(-244.488 -252.987)" fill="#3f3d56"/>
    <path id="Path_759" data-name="Path 759" d="M316.949,376.242l.483,4.867,7.624-.757a2.445,2.445,0,1,0-.483-4.867Z" transform="translate(-264.9 -285.023)" fill="#ffb9b9"/>
    <path id="Path_760" data-name="Path 760" d="M298.578,368.818a6.289,6.289,0,0,0,6.282,6.247h1.254l.913-7.606-7.557-2.72Z" transform="translate(-253.158 -278.163)" fill="#e6e6e6"/>
    <path id="Path_766" data-name="Path 766" d="M191.921,640.241c5.2,6.969,16.006,7.7,16.006,7.7s2.365-10.565-2.839-17.535-16.006-7.7-16.006-7.7S186.717,633.272,191.921,640.241Z" transform="translate(-182.835 -443.034)" fill="#e6e6e6"/>
    <path id="Path_767" data-name="Path 767" d="M252.024,658.063c-3.434,4.6-10.562,5.083-10.562,5.083s-1.561-6.972,1.873-11.57,10.562-5.083,10.562-5.083S255.457,653.464,252.024,658.063Z" transform="translate(-216.428 -458.236)" fill="#e6e6e6"/>
    <rect id="Rectangle_572" data-name="Rectangle 572" width="187.5" height="0.809" transform="translate(0 220.814)" fill="#3f3d56"/>
  </g>
</svg>
