<svg xmlns="http://www.w3.org/2000/svg" width="159" height="193.205" viewBox="0 0 159 193.205">
  <g id="undraw_fresh_notification_bvtv" transform="translate(0 -0.283)">
    <path id="Path_1050" data-name="Path 1050" d="M206.654,286.809,179.172,371.4H90.228L62.745,286.809,134.7,234.53Z" transform="translate(-47.654 -177.909)" fill="#3f3d56"/>
    <path id="Path_1051" data-name="Path 1051" d="M209.368,635.406h-.438v-.438h-.086v.438h-.438v.085h.438v.438h.086v-.438h.438Z" transform="translate(-158.283 -482.039)" fill="#f2f2f2"/>
    <path id="Path_1052" data-name="Path 1052" d="M188.368,745.406h-.438v-.438h-.086v.438h-.438v.085h.438v.438h.086v-.438h.438Z" transform="translate(-142.334 -565.583)" fill="#f2f2f2"/>
    <path id="Path_1053" data-name="Path 1053" d="M308.368,778.406h-.438v-.438h-.086v.438h-.438v.085h.438v.438h.086v-.438h.438Z" transform="translate(-233.473 -590.646)" fill="#f2f2f2"/>
    <circle id="Ellipse_105" data-name="Ellipse 105" cx="0.962" cy="0.962" r="0.962" transform="translate(68.882 165.916)" fill="#ff6584"/>
    <path id="Path_1054" data-name="Path 1054" d="M507.368,395.406h-.438v-.438h-.086v.438h-.438v.085h.438v.438h.086v-.438h.438Z" transform="translate(-384.612 -299.76)" fill="#f2f2f2"/>
    <path id="Path_1055" data-name="Path 1055" d="M486.368,505.406h-.438v-.438h-.086v.438h-.438v.085h.438v.438h.086v-.438h.438Z" transform="translate(-368.663 -383.305)" fill="#f2f2f2"/>
    <path id="Path_1056" data-name="Path 1056" d="M606.368,538.406h-.438v-.438h-.086v.438h-.438v.085h.438v.438h.086v-.438h.438Z" transform="translate(-459.802 -408.368)" fill="#f2f2f2"/>
    <circle id="Ellipse_106" data-name="Ellipse 106" cx="0.962" cy="0.962" r="0.962" transform="translate(140.553 108.195)" fill="#ff6584"/>
    <circle id="Ellipse_107" data-name="Ellipse 107" cx="1.684" cy="1.684" r="1.684" transform="translate(41.229 95.362)" fill="#f2f2f2"/>
    <path id="Path_1057" data-name="Path 1057" d="M438.829,647.963l-.546.084c.171,1.092.305,2.208.4,3.312l.551-.048C439.139,650.193,439,649.067,438.829,647.963Z" transform="translate(-397.677 -503.5)" fill="#e6e6e6"/>
    <path id="Path_1058" data-name="Path 1058" d="M432.672,620.623l-.529.161c.32,1.058.606,2.143.849,3.223l.541-.123C433.285,622.792,432.994,621.7,432.672,620.623Z" transform="translate(-393.014 -482.735)" fill="#e6e6e6"/>
    <path id="Path_1059" data-name="Path 1059" d="M422.846,594.4l-.5.231c.462,1.008.895,2.042,1.287,3.076l.517-.195C423.75,596.469,423.315,595.42,422.846,594.4Z" transform="translate(-385.571 -462.821)" fill="#e6e6e6"/>
    <path id="Path_1060" data-name="Path 1060" d="M409.56,569.823l-.467.3c.594.933,1.164,1.9,1.693,2.869l.486-.265C410.738,571.742,410.161,570.766,409.56,569.823Z" transform="translate(-375.507 -444.153)" fill="#e6e6e6"/>
    <path id="Path_1061" data-name="Path 1061" d="M393.044,547.293l-.421.358c.717.842,1.414,1.722,2.073,2.612l.443-.329C394.475,549.034,393.77,548.144,393.044,547.293Z" transform="translate(-362.998 -427.041)" fill="#e6e6e6"/>
    <path id="Path_1062" data-name="Path 1062" d="M373.631,527.233l-.368.411c.827.738,1.638,1.515,2.41,2.306l.4-.387C375.288,528.763,374.468,527.979,373.631,527.233Z" transform="translate(-348.295 -411.806)" fill="#e6e6e6"/>
    <path id="Path_1063" data-name="Path 1063" d="M351.693,510.013l-.31.457c.919.618,1.828,1.277,2.7,1.958l.342-.435C353.54,511.3,352.622,510.638,351.693,510.013Z" transform="translate(-331.677 -398.728)" fill="#e6e6e6"/>
    <path id="Path_1064" data-name="Path 1064" d="M332.543,498.053v.625c.575.3,1.145.616,1.7.938l.277-.479Q333.548,498.575,332.543,498.053Z" transform="translate(-317.368 -389.644)" fill="#e6e6e6"/>
    <path id="Path_1065" data-name="Path 1065" d="M440.708,676.237l.553-.01c.01.558.011,1.119,0,1.668l-.553-.009C440.719,677.344,440.718,676.789,440.708,676.237Z" transform="translate(-399.519 -524.966)" fill="#e6e6e6"/>
    <path id="Path_1066" data-name="Path 1066" d="M541.9,216.8h0c13.441,0,24.338,12.093,24.338,27.01v18.952h-5.829l-3.375-7.022.844,7.022H520.417l-3.068-6.384.767,6.384H513.9V247.886C513.9,230.72,526.437,216.8,541.9,216.8Z" transform="translate(-455.106 -176.038)" fill="#2f2e41"/>
    <path id="Path_1067" data-name="Path 1067" d="M529.463,586.721s3.4,15.458.927,22.877-1.546,11.748-1.546,11.748l48.846-.927s-1.237-19.168-8.347-21.332S529.463,586.721,529.463,586.721Z" transform="translate(-466.329 -456.987)" fill="#d0cde1"/>
    <circle id="Ellipse_108" data-name="Ellipse 108" cx="14.839" cy="14.839" r="14.839" transform="translate(74.882 52.136)" fill="#ffb9b9"/>
    <path id="Path_1068" data-name="Path 1068" d="M594.37,363.055s.927,11.13-2.473,11.748,9.893,11.13,9.893,11.13l12.057-9.275s-7.729-6.183-4.328-12.057Z" transform="translate(-513.923 -287.114)" fill="#ffb9b9"/>
    <path id="Path_1069" data-name="Path 1069" d="M525.655,401.017l-6.069-5.352s-3.205-3-4.442-1.141-4.019-.618-4.019-.618L498.45,409.364s-7.42,6.492-4.019,18.24a172.121,172.121,0,0,0,6.8,19.477s-.927-4.946,2.782-3.092,30.606,9.584,32.152,11.439,2.164,3.71,4.019,2.164,1.237-2.473,3.091-1.855,4.637-3.71,4.637-3.71-5.565-3.092-3.092-6.492,6.183-22.877,6.183-22.877l8.347-10.2s-.309-5.256-6.8-8.347-11.439-4.328-12.057-5.256-3.71-.927-3.71-.927Z" transform="translate(-439.643 -310.545)" fill="#5fe5bc"/>
    <path id="Path_1070" data-name="Path 1070" d="M549.714,733.6s0,0,0,.007H482.836c-.214-.558-.661-2.4-1.106-8.415-.618-8.348,8.656-14.839,8.348-15.457s.618-.928.926-1.547,0-.928-.618-2.472.618-1.239,1.236-2.165.31-1.546,0-3.093,2.119-4.281,2.119-4.281.046,5.827,20.45,6.138,26.316-6.138,26.316-6.138c3.629,1.518,6.624,18.673,8.148,29.3.219,1.53.409,2.922.563,4.115C549.483,731.606,549.651,733.047,549.714,733.6Z" transform="translate(-430.652 -540.116)" fill="#575a88"/>
    <path id="Path_1071" data-name="Path 1071" d="M728.006,809.835s-8.41,7.6-11.92,3.584,7.926-10.2,7.926-10.2Z" transform="translate(-608.158 -621.415)" fill="#ffb9b9"/>
    <path id="Path_1072" data-name="Path 1072" d="M741.838,514.053c-2.165,16.386-3.709,32.771-6.183,32.461-2.083-.262-5.262,2.331-6.212,3.153l-.007.007h-.423l-1.76-2.787-4.315-6.83-1.193-1.89s2.642-7.023,3.01-10.331c.194-1.745,2.66-9.228,1.443-15.633-.323-1.7-.082-3.195-.481-4.81a117.852,117.852,0,0,1-3.127-16.354L718.343,464.9l4.947-10.82,5.072-.078s4.82,8.734,4.82,9.66S744,497.668,741.838,514.053Z" transform="translate(-610.381 -356.186)" fill="#5fe5bc"/>
    <path id="Path_1073" data-name="Path 1073" d="M700.346,202.268s11.13-2.164,12.057,3.092S700.346,210,700.346,210Z" transform="translate(-596.712 -164.662)" fill="#ffb9b9"/>
    <path id="Path_1074" data-name="Path 1074" d="M553.15,231.511a12.764,12.764,0,0,1,10.071-5.139h.478c9.213,0,16.681,8.337,16.681,18.62h-3.087l-.5-3.795-.731,3.795H557.755l-1.534-3.21.383,3.21H553q-2.521,12.521,7.245,25.041h-6.136l-3.068-6.421.767,6.421h-11.7l-2.3-14.768C537.814,244.206,544.24,234.827,553.15,231.511Z" transform="translate(-473.27 -183.304)" fill="#2f2e41"/>
    <path id="Path_1075" data-name="Path 1075" d="M497.586,263.491s-6.492-11.439-4.946-25.042-.618-32.461,7.111-34.316,44.518-4.328,44.518-4.328.927,10.2,0,11.439-3.71-.309-5.565.309-21.023,1.237-23.5,6.8l-2.473,5.565s.618,7.111-2.473,8.347-.309,8.347-.618,8.965.618,5.256.618,5.256l-.309,9.275Z" transform="translate(-438.78 -163.126)" fill="#5fe5bc"/>
    <path id="Path_1076" data-name="Path 1076" d="M728.434,79.213a19.725,19.725,0,1,1,9.152,7.348,6.38,6.38,0,1,1-9.152-7.348Z" transform="translate(-615.483 -48.195)" fill="#3f3d56"/>
    <circle id="Ellipse_109" data-name="Ellipse 109" cx="2.283" cy="2.283" r="2.283" transform="translate(119.288 17.275)" fill="#5fe5bc"/>
    <circle id="Ellipse_110" data-name="Ellipse 110" cx="2.283" cy="2.283" r="2.283" transform="translate(127.075 17.275)" fill="#5fe5bc"/>
    <circle id="Ellipse_111" data-name="Ellipse 111" cx="2.283" cy="2.283" r="2.283" transform="translate(134.863 17.275)" fill="#5fe5bc"/>
    <path id="Path_1077" data-name="Path 1077" d="M134.368,469.406h-.438v-.438h-.086v.438h-.438v.085h.438v.438h.086v-.438h.438Z" transform="translate(-101.321 -355.963)" fill="#f2f2f2"/>
    <path id="Path_1078" data-name="Path 1078" d="M113.368,579.406h-.438v-.438h-.086v.438h-.438v.085h.438v.438h.086v-.438h.438Z" transform="translate(-85.372 -439.507)" fill="#f2f2f2"/>
    <path id="Path_1079" data-name="Path 1079" d="M233.368,612.406h-.438v-.438h-.086v.438h-.438v.085h.438v.438h.086v-.438h.438Z" transform="translate(-176.511 -464.571)" fill="#f2f2f2"/>
    <circle id="Ellipse_112" data-name="Ellipse 112" cx="0.962" cy="0.962" r="0.962" transform="translate(50.845 125.992)" fill="#ff6584"/>
    <path id="Path_1080" data-name="Path 1080" d="M94.177,304.338l-4.588-1.811L85,300.717l3.862-3.068,3.862-3.069.726,4.879Z" transform="translate(-64.557 -223.516)" fill="#3f3d56"/>
    <path id="Path_1081" data-name="Path 1081" d="M9.177,589.338l-4.588-1.811L0,585.717l3.862-3.068,3.862-3.069.726,4.879Z" transform="translate(0 -439.972)" fill="#3f3d56"/>
    <path id="Path_1082" data-name="Path 1082" d="M615.732,323.648,611.4,326l-4.333,2.356.126-4.931.126-4.931,4.208,2.575Z" transform="translate(-461.062 -241.682)" fill="#3f3d56"/>
  </g>
</svg>
